<?xml version="1.0" encoding="utf-8"?>
<!-- Generator: Adobe Illustrator 24.0.0, SVG Export Plug-In . SVG Version: 6.00 Build 0)  -->
<svg version="1.1" id="svg8740" xmlns="http://www.w3.org/2000/svg" xmlns:xlink="http://www.w3.org/1999/xlink" x="0px" y="0px"
	 viewBox="0 0 449.8 354.6" style="enable-background:new 0 0 449.8 354.6;" xml:space="preserve">
<style type="text/css">
	.st0{fill:#D8D8D8;}
	.st1{fill:#232323;}
	.st2{font-family:'DroidSans';}
	.st3{font-size:5.6746px;}
	.st4{fill:#FFFFFF;}
	.st5{font-size:6.0897px;}
	.st6{fill:#FF5E4D;}
	.st7{font-size:5.1088px;}
	.st8{fill:none;}
	.st9{fill:#004E29;}
	.st10{fill:#006837;}
	.st11{fill:#33865F;}
	.st12{fill:none;stroke:#FCEE21;stroke-width:2;stroke-miterlimit:10;}
	.st13{fill:#30312E;}
	.st14{fill:#363A44;}
	.st15{fill:#DBDDDA;}
	.st16{fill:#2A2D2E;}
	.st17{fill:#ECF6FD;}
	.st18{fill:#CCCCCC;}
	.st19{fill:#33CC33;}
	.st20{fill:#958863;}
	.st21{fill:#9A916C;}
	.st22{font-size:5.6734px;}
	.st23{font-size:8.1048px;}
	.st24{fill:#3D3F38;}
	.st25{font-size:3.5661px;}
	.st26{fill:none;stroke:#000000;stroke-miterlimit:10;}
	.st27{fill:none;stroke:#FF0000;stroke-miterlimit:10;}
	.st28{fill:#FF0000;}
	.st29{font-family:'Ubuntu-Bold';}
	.st30{font-size:15.1965px;}
</style>
<desc>
	<referenceFile>pico-pin.svg</referenceFile>
</desc>
<rect id="rect1337" x="165.2" y="81.1" class="st0" width="7.7" height="7.6"/>
<rect id="rect1339" x="145" y="81.1" class="st1" width="19" height="7.6"/>
<text id="text1341" transform="matrix(1.0129 0 0 1 167.3937 87.0356)" class="st1 st2 st3">3</text>
<text id="text1343" transform="matrix(1.0129 0 0 1 148.1359 87.0356)" class="st4 st2 st3">GND</text>
<rect id="rect1469" x="165.2" y="149.4" class="st0" width="7.7" height="7.6"/>
<rect id="rect1471" x="145" y="149.4" class="st1" width="19" height="7.6"/>
<text id="text1473" transform="matrix(1.0129 0 0 1 167.3937 155.3696)" class="st1 st2 st3">8</text>
<text id="text1475" transform="matrix(1.0129 0 0 1 148.1359 155.3696)" class="st4 st2 st3">GND</text>
<rect id="rect1477" x="165.2" y="217.5" class="st0" width="7.7" height="7.6"/>
<rect id="rect1479" x="145" y="217.5" class="st1" width="19" height="7.6"/>
<text id="text1481" transform="matrix(1.0129 0 0 1 165.6994 223.4281)" class="st1 st2 st3">13</text>
<text id="text1483" transform="matrix(1.0129 0 0 1 148.1359 223.4281)" class="st4 st2 st3">GND</text>
<rect id="rect1485" x="165.2" y="285.6" class="st0" width="7.7" height="7.6"/>
<rect id="rect1487" x="145" y="285.6" class="st1" width="19" height="7.6"/>
<text id="text1489" transform="matrix(1.0129 0 0 1 165.6994 291.4418)" class="st1 st2 st3">18</text>
<text id="text1571" transform="matrix(1.0129 0 0 1 148.1359 291.4418)" class="st4 st2 st3">GND</text>
<rect id="rect1491" x="291" y="52.1" class="st0" width="7.6" height="7.6"/>
<text id="text1493" transform="matrix(1 0 0 1 291.5842 58.1264)" class="st1 st2 st5">40</text>
<rect id="rect1495" x="291" y="66" class="st0" width="7.6" height="7.6"/>
<text id="text1497" transform="matrix(1 0 0 1 291.5842 71.975)" class="st1 st2 st5">39</text>
<rect id="rect1499" x="291" y="79.5" class="st0" width="7.6" height="7.6"/>
<text id="text1501" transform="matrix(1 0 0 1 291.5842 85.474)" class="st1 st2 st5">38</text>
<rect id="rect1507" x="291" y="107.1" class="st0" width="7.6" height="7.6"/>
<text id="text1509" transform="matrix(1 0 0 1 291.5842 113.0785)" class="st1 st2 st5">36</text>
<rect id="rect1559" x="291" y="148.2" class="st0" width="7.6" height="7.6"/>
<text id="text1561" transform="matrix(1 0 0 1 291.5842 154.2221)" class="st1 st2 st5">33</text>
<rect id="rect1563" x="291" y="216.7" class="st0" width="7.6" height="7.6"/>
<text id="text1565" transform="matrix(1 0 0 1 291.5842 222.6928)" class="st1 st2 st5">28</text>
<rect id="rect1567" x="291" y="285.2" class="st0" width="7.6" height="7.6"/>
<text id="text1569" transform="matrix(1 0 0 1 291.5842 291.1186)" class="st1 st2 st5">23</text>
<rect id="rect1573" x="299.7" y="52.1" class="st6" width="18.8" height="7.6"/>
<text id="text1575" transform="matrix(1 0 0 1 301.4474 58.1264)" class="st4 st2 st5">VBUS</text>
<rect id="rect1577" x="299.7" y="66" class="st6" width="18.8" height="7.6"/>
<text id="text1579" transform="matrix(1 0 0 1 302.0851 71.975)" class="st4 st2 st5">VSYS</text>
<rect id="rect1581" x="299.7" y="79.5" class="st1" width="18.8" height="7.6"/>
<text id="text1583" transform="matrix(1 0 0 1 302.8488 85.474)" class="st4 st2 st5">GND</text>
<rect id="rect1587" x="299.7" y="107.1" class="st6" width="18.8" height="7.6"/>
<text id="text1589" transform="matrix(1 0 0 1 301.5109 112.7817)" class="st4 st2 st7">3V3(O)</text>
<rect id="rect1641" x="299.7" y="148.2" class="st1" width="18.8" height="7.6"/>
<text id="text1643" transform="matrix(1 0 0 1 302.8488 154.2221)" class="st4 st2 st5">GND</text>
<rect id="rect1645" x="299.7" y="216.7" class="st1" width="18.8" height="7.6"/>
<text id="text1647" transform="matrix(1 0 0 1 302.8488 222.6928)" class="st4 st2 st5">GND</text>
<rect id="rect1649" x="299.7" y="285.2" class="st1" width="18.8" height="7.6"/>
<text id="text1651" transform="matrix(1 0 0 1 302.8488 291.1186)" class="st4 st2 st5">GND</text>
<g>
	<g id="g17884">
		<path id="path4-2" class="st8" d="M201.6,65.3c2.6,0,4.8-2.1,4.8-4.8c0-2.6-2.1-4.8-4.8-4.8s-4.8,2.1-4.8,4.8
			C196.8,63.1,198.9,65.3,201.6,65.3z"/>
		<path id="path6-7" class="st8" d="M262.9,317.8c2.6,0,4.8-2.1,4.8-4.8c0-2.6-2.1-4.8-4.8-4.8c-2.6,0-4.8,2.1-4.8,4.8
			C258.1,315.7,260.3,317.8,262.9,317.8z"/>
		<path id="path8-8" class="st8" d="M262.9,65.3c2.6,0,4.8-2.1,4.8-4.8c0-2.6-2.1-4.8-4.8-4.8c-2.6,0-4.8,2.1-4.8,4.8
			C258.1,63.1,260.3,65.3,262.9,65.3z"/>
		<ellipse id="circle10-5" class="st8" cx="201.6" cy="313" rx="4.8" ry="4.8"/>
		<path id="path12-2" class="st9" d="M288.8,68.2v-9.1l0,0c-0.4,0-0.7-0.1-1-0.3v9.6C288.1,68.3,288.4,68.2,288.8,68.2L288.8,68.2z"
			/>
		<path id="path14-3" class="st9" d="M288.8,81.9v-9.1l0,0c-0.4,0-0.7-0.1-1-0.3v9.6C288.1,82,288.4,81.9,288.8,81.9L288.8,81.9z"/>
		<path id="path16-7" class="st9" d="M288.8,95.6v-9.1l0,0c-0.4,0-0.7-0.1-1-0.3v9.6C288.1,95.7,288.4,95.6,288.8,95.6L288.8,95.6z"
			/>
		<path id="path18-7" class="st9" d="M288.8,109.2v-9.1l0,0c-0.4,0-0.7-0.1-1-0.3v9.6C288.1,109.3,288.4,109.2,288.8,109.2
			L288.8,109.2z"/>
		<path id="path20-7" class="st9" d="M288.8,122.9v-9.1l0,0c-0.4,0-0.7-0.1-1-0.3v9.6C288.1,123,288.4,122.9,288.8,122.9
			L288.8,122.9z"/>
		<path id="path22-0" class="st9" d="M288.8,136.6v-9.1l0,0c-0.4,0-0.7-0.1-1-0.3v9.6C288.1,136.7,288.4,136.6,288.8,136.6
			L288.8,136.6z"/>
		<path id="path24-0" class="st9" d="M288.8,150.3v-9.1l0,0c-0.4,0-0.7-0.1-1-0.3v9.6C288.1,150.4,288.4,150.3,288.8,150.3
			L288.8,150.3z"/>
		<path id="path26-5" class="st9" d="M288.8,163.9v-9.1l0,0c-0.4,0-0.7-0.1-1-0.3v9.6C288.1,164,288.4,163.9,288.8,163.9
			C288.8,163.9,288.8,163.9,288.8,163.9z"/>
		<path id="path28-8" class="st9" d="M288.8,177.6v-9.1l0,0c-0.4,0-0.7-0.1-1-0.3v9.6C288.1,177.7,288.4,177.6,288.8,177.6
			L288.8,177.6z"/>
		<path id="path30-2" class="st9" d="M288.8,191.3v-9.1l0,0c-0.4,0-0.7-0.1-1-0.3v9.6C288.1,191.4,288.4,191.3,288.8,191.3
			L288.8,191.3z"/>
		<path id="path32-9" class="st9" d="M288.8,205v-9.1l0,0c-0.4,0-0.7-0.1-1-0.3v9.6C288.1,205.1,288.4,205,288.8,205L288.8,205z"/>
		<path id="path34-0" class="st9" d="M288.8,218.6v-9.1l0,0c-0.4,0-0.7-0.1-1-0.3v9.6C288.1,218.8,288.4,218.6,288.8,218.6
			L288.8,218.6z"/>
		<path id="path36-8" class="st9" d="M288.8,232.3v-9.1l0,0c-0.4,0-0.7-0.1-1-0.3v9.6C288.1,232.4,288.4,232.3,288.8,232.3
			L288.8,232.3z"/>
		<path id="path38-8" class="st9" d="M288.8,246v-9.1l0,0c-0.4,0-0.7-0.1-1-0.3v9.6C288.1,246.1,288.4,246,288.8,246L288.8,246z"/>
		<path id="path40-8" class="st9" d="M288.8,259.7v-9.1l0,0c-0.4,0-0.7-0.1-1-0.3v9.6C288.1,259.8,288.4,259.7,288.8,259.7
			L288.8,259.7z"/>
		<path id="path42-3" class="st9" d="M288.8,273.3v-9.1l0,0c-0.4,0-0.7-0.1-1-0.3v9.6C288.1,273.5,288.4,273.3,288.8,273.3
			L288.8,273.3z"/>
		<path id="path44-2" class="st9" d="M288.8,287v-9.1l0,0c-0.4,0-0.7-0.1-1-0.3v9.6C288.1,287.1,288.4,287,288.8,287L288.8,287z"/>
		<path id="path46-9" class="st9" d="M288.8,300.7v-9.1l0,0c-0.4,0-0.7-0.1-1-0.3v9.6C288.1,300.8,288.4,300.7,288.8,300.7
			L288.8,300.7z"/>
		<path id="path48-4" class="st9" d="M288.8,314.4v-9.1l0,0c-0.4,0-0.7-0.1-1-0.3v9.6C288.1,314.5,288.4,314.4,288.8,314.4
			L288.8,314.4z"/>
		<path id="path50-4" class="st9" d="M288.8,319L288.8,319c-0.4,0-0.7-0.1-1-0.3v3c0,0.7-0.6,1.3-1.3,1.3h-38.5
			c0.2,0.3,0.3,0.7,0.3,1l0,0h38.4c1.2,0,2.2-1,2.2-2.2L288.8,319L288.8,319z"/>
		<path id="path52-5" class="st9" d="M220.6,323c0.2,0.3,0.3,0.7,0.3,1l0,0h9.1l0,0c0-0.4,0.1-0.7,0.3-1H220.6z"/>
		<path id="path54-4" class="st9" d="M234.3,323c0.2,0.3,0.3,0.7,0.3,1l0,0h9.1l0,0c0-0.4,0.1-0.7,0.3-1H234.3z"/>
		<path id="path56-1" class="st9" d="M288.2,50.1l-0.8,0.8c0.2,0.2,0.4,0.6,0.4,1v3c0.3-0.2,0.7-0.3,1-0.3l0,0v-2.9
			C288.8,51,288.5,50.5,288.2,50.1z"/>
		<path id="path62-3" class="st9" d="M216.5,323h-38.5c-0.4,0-0.7-0.2-1-0.4l-0.8,0.8c0.4,0.4,0.9,0.6,1.5,0.6h38.4l0,0
			C216.3,323.7,216.4,323.4,216.5,323L216.5,323z"/>
		<path id="path66-3" class="st10" d="M176.7,51.8v3c0.7,0.4,1.3,1.1,1.3,2c0,0.9-0.5,1.6-1.3,2v9.6c0.7,0.4,1.3,1.1,1.3,2
			c0,0.9-0.5,1.6-1.3,2v9.6c0.7,0.4,1.3,1.1,1.3,2c0,0.9-0.5,1.6-1.3,2v9.6c0.7,0.4,1.3,1.1,1.3,2s-0.5,1.6-1.3,2v9.6
			c0.7,0.4,1.3,1.1,1.3,2c0,0.9-0.5,1.6-1.3,2v9.6c0.7,0.4,1.3,1.1,1.3,2s-0.5,1.6-1.3,2v9.6c0.7,0.4,1.3,1.1,1.3,2s-0.5,1.6-1.3,2
			v9.6c0.7,0.4,1.3,1.1,1.3,2s-0.5,1.6-1.3,2v9.6c0.7,0.4,1.3,1.1,1.3,2s-0.5,1.6-1.3,2v9.6c0.7,0.4,1.3,1.1,1.3,2
			c0,0.9-0.5,1.6-1.3,2v9.6c0.7,0.4,1.3,1.1,1.3,2c0,0.9-0.5,1.6-1.3,2v9.6c0.7,0.4,1.3,1.1,1.3,2c0,0.9-0.5,1.6-1.3,2v9.6
			c0.7,0.4,1.3,1.1,1.3,2s-0.5,1.6-1.3,2v9.6c0.7,0.4,1.3,1.1,1.3,2s-0.5,1.6-1.3,2v9.6c0.7,0.4,1.3,1.1,1.3,2s-0.5,1.6-1.3,2v9.6
			c0.7,0.4,1.3,1.1,1.3,2c0,0.9-0.5,1.6-1.3,2v9.6c0.7,0.4,1.3,1.1,1.3,2s-0.5,1.6-1.3,2v9.6c0.7,0.4,1.3,1.1,1.3,2s-0.5,1.6-1.3,2
			v9.6c0.7,0.4,1.3,1.1,1.3,2c0,0.9-0.5,1.6-1.3,2v9.6c0.7,0.4,1.3,1.1,1.3,2s-0.5,1.6-1.3,2v3c0,0.7,0.6,1.3,1.3,1.3h38.5
			c0.4-0.7,1.1-1.3,2-1.3s1.6,0.5,2,1.3h9.6c0.4-0.7,1.1-1.3,2-1.3c0.9,0,1.6,0.5,2,1.3h9.6c0.4-0.7,1.1-1.3,2-1.3s1.6,0.5,2,1.3
			h38.5c0.7,0,1.3-0.6,1.3-1.3v-3c-0.7-0.4-1.3-1.1-1.3-2c0-0.9,0.5-1.6,1.3-2V305c-0.7-0.4-1.3-1.1-1.3-2s0.5-1.6,1.3-2v-9.6
			c-0.7-0.4-1.3-1.1-1.3-2s0.5-1.6,1.3-2v-9.6c-0.7-0.4-1.3-1.1-1.3-2c0-0.9,0.5-1.6,1.3-2V264c-0.7-0.4-1.3-1.1-1.3-2
			c0-0.9,0.5-1.6,1.3-2v-9.6c-0.7-0.4-1.3-1.1-1.3-2s0.5-1.6,1.3-2v-9.6c-0.7-0.4-1.3-1.1-1.3-2c0-0.9,0.5-1.6,1.3-2V223
			c-0.7-0.4-1.3-1.1-1.3-2c0-0.9,0.5-1.6,1.3-2v-9.6c-0.7-0.4-1.3-1.1-1.3-2c0-0.9,0.5-1.6,1.3-2v-9.6c-0.7-0.4-1.3-1.1-1.3-2
			c0-0.9,0.5-1.6,1.3-2v-9.6c-0.7-0.4-1.3-1.1-1.3-2s0.5-1.6,1.3-2v-9.6c-0.7-0.4-1.3-1.1-1.3-2c0-0.9,0.5-1.6,1.3-2v-9.6
			c-0.7-0.4-1.3-1.1-1.3-2c0-0.9,0.5-1.6,1.3-2v-9.6c-0.7-0.4-1.3-1.1-1.3-2s0.5-1.6,1.3-2v-9.6c-0.7-0.4-1.3-1.1-1.3-2
			s0.5-1.6,1.3-2v-9.6c-0.7-0.4-1.3-1.1-1.3-2c0-0.9,0.5-1.6,1.3-2v-9.6c-0.7-0.4-1.3-1.1-1.3-2s0.5-1.6,1.3-2v-9.6
			c-0.7-0.4-1.3-1.1-1.3-2c0-0.9,0.5-1.6,1.3-2v-9.6c-0.7-0.4-1.3-1.1-1.3-2c0-0.9,0.5-1.6,1.3-2v-9.6c-0.7-0.4-1.3-1.1-1.3-2
			s0.5-1.6,1.3-2v-3c0-0.7-0.6-1.3-1.3-1.3H178.1C177.3,50.5,176.7,51.1,176.7,51.8z M184.4,318.9c-1.3,0-2.3-1-2.3-2.3
			s1-2.3,2.3-2.3c1.3,0,2.3,1,2.3,2.3S185.6,318.9,184.4,318.9z M186.7,303c0,1.3-1,2.3-2.3,2.3c-1.3,0-2.3-1-2.3-2.3s1-2.3,2.3-2.3
			C185.6,300.7,186.7,301.7,186.7,303z M186.7,289.3c0,1.3-1,2.3-2.3,2.3c-1.3,0-2.3-1-2.3-2.3s1-2.3,2.3-2.3
			C185.6,287,186.7,288.1,186.7,289.3z M186.7,275.6c0,1.3-1,2.3-2.3,2.3c-1.3,0-2.3-1-2.3-2.3s1-2.3,2.3-2.3
			C185.6,273.4,186.7,274.4,186.7,275.6z M186.7,262c0,1.3-1,2.3-2.3,2.3c-1.3,0-2.3-1-2.3-2.3s1-2.3,2.3-2.3
			C185.6,259.7,186.7,260.7,186.7,262z M186.7,248.3c0,1.3-1,2.3-2.3,2.3c-1.3,0-2.3-1-2.3-2.3c0-1.3,1-2.3,2.3-2.3
			C185.6,246,186.7,247,186.7,248.3z M186.7,234.6c0,1.3-1,2.3-2.3,2.3c-1.3,0-2.3-1-2.3-2.3s1-2.3,2.3-2.3
			C185.6,232.3,186.7,233.4,186.7,234.6z M186.7,220.9c0,1.3-1,2.3-2.3,2.3c-1.3,0-2.3-1-2.3-2.3s1-2.3,2.3-2.3
			C185.6,218.7,186.7,219.7,186.7,220.9z M186.7,207.3c0,1.3-1,2.3-2.3,2.3c-1.3,0-2.3-1-2.3-2.3c0-1.3,1-2.3,2.3-2.3
			C185.6,205,186.7,206,186.7,207.3z M186.7,193.6c0,1.3-1,2.3-2.3,2.3c-1.3,0-2.3-1-2.3-2.3s1-2.3,2.3-2.3
			C185.6,191.3,186.7,192.3,186.7,193.6z M186.7,179.9c0,1.3-1,2.3-2.3,2.3c-1.3,0-2.3-1-2.3-2.3c0-1.3,1-2.3,2.3-2.3
			C185.6,177.6,186.7,178.7,186.7,179.9z M186.7,166.2c0,1.3-1,2.3-2.3,2.3c-1.3,0-2.3-1-2.3-2.3c0-1.3,1-2.3,2.3-2.3
			C185.6,164,186.7,165,186.7,166.2z M186.7,152.6c0,1.3-1,2.3-2.3,2.3c-1.3,0-2.3-1-2.3-2.3c0-1.3,1-2.3,2.3-2.3
			C185.6,150.3,186.7,151.3,186.7,152.6z M186.7,138.9c0,1.3-1,2.3-2.3,2.3c-1.3,0-2.3-1-2.3-2.3c0-1.3,1-2.3,2.3-2.3
			C185.6,136.6,186.7,137.6,186.7,138.9z M186.7,125.2c0,1.3-1,2.3-2.3,2.3c-1.3,0-2.3-1-2.3-2.3s1-2.3,2.3-2.3
			C185.6,122.9,186.7,123.9,186.7,125.2z M186.7,111.5c0,1.3-1,2.3-2.3,2.3c-1.3,0-2.3-1-2.3-2.3s1-2.3,2.3-2.3
			C185.6,109.2,186.7,110.3,186.7,111.5z M186.7,97.8c0,1.3-1,2.3-2.3,2.3c-1.3,0-2.3-1-2.3-2.3c0-1.3,1-2.3,2.3-2.3
			C185.6,95.6,186.7,96.6,186.7,97.8z M186.7,84.2c0,1.3-1,2.3-2.3,2.3c-1.3,0-2.3-1-2.3-2.3c0-1.3,1-2.3,2.3-2.3
			C185.6,81.9,186.7,82.9,186.7,84.2z M186.7,70.5c0,1.3-1,2.3-2.3,2.3c-1.3,0-2.3-1-2.3-2.3c0-1.3,1-2.3,2.3-2.3
			C185.6,68.2,186.7,69.2,186.7,70.5z M186.7,56.8c0,1.3-1,2.3-2.3,2.3c-1.3,0-2.3-1-2.3-2.3c0-1.3,1-2.3,2.3-2.3
			C185.6,54.5,186.7,55.6,186.7,56.8z M201.6,317.8c-2.6,0-4.8-2.1-4.8-4.8c0-2.6,2.1-4.8,4.8-4.8s4.8,2.1,4.8,4.8
			C206.4,315.7,204.2,317.8,201.6,317.8z M201.6,65.3c-2.6,0-4.8-2.1-4.8-4.8c0-2.6,2.1-4.8,4.8-4.8s4.8,2.1,4.8,4.8
			C206.4,63.1,204.2,65.3,201.6,65.3z M218.6,318.9c-1.3,0-2.3-1-2.3-2.3s1-2.3,2.3-2.3c1.3,0,2.3,1,2.3,2.3
			S219.8,318.9,218.6,318.9z M232.2,318.9c-1.3,0-2.3-1-2.3-2.3s1-2.3,2.3-2.3c1.3,0,2.3,1,2.3,2.3S233.5,318.9,232.2,318.9z
			 M277.8,316.7c0-1.3,1-2.3,2.3-2.3s2.3,1,2.3,2.3s-1,2.3-2.3,2.3S277.8,317.9,277.8,316.7z M277.8,303c0-1.3,1-2.3,2.3-2.3
			s2.3,1,2.3,2.3s-1,2.3-2.3,2.3S277.8,304.3,277.8,303z M277.8,289.3c0-1.3,1-2.3,2.3-2.3s2.3,1,2.3,2.3s-1,2.3-2.3,2.3
			S277.8,290.6,277.8,289.3z M277.8,275.6c0-1.3,1-2.3,2.3-2.3s2.3,1,2.3,2.3s-1,2.3-2.3,2.3S277.8,276.9,277.8,275.6z M277.8,262
			c0-1.3,1-2.3,2.3-2.3s2.3,1,2.3,2.3s-1,2.3-2.3,2.3S277.8,263.2,277.8,262z M277.8,248.3c0-1.3,1-2.3,2.3-2.3s2.3,1,2.3,2.3
			c0,1.3-1,2.3-2.3,2.3S277.8,249.5,277.8,248.3z M277.8,234.6c0-1.3,1-2.3,2.3-2.3s2.3,1,2.3,2.3s-1,2.3-2.3,2.3
			S277.8,235.9,277.8,234.6z M277.8,220.9c0-1.3,1-2.3,2.3-2.3s2.3,1,2.3,2.3s-1,2.3-2.3,2.3S277.8,222.2,277.8,220.9z M277.8,207.3
			c0-1.3,1-2.3,2.3-2.3s2.3,1,2.3,2.3c0,1.3-1,2.3-2.3,2.3S277.8,208.5,277.8,207.3z M277.8,193.6c0-1.3,1-2.3,2.3-2.3
			s2.3,1,2.3,2.3s-1,2.3-2.3,2.3S277.8,194.8,277.8,193.6z M277.8,179.9c0-1.3,1-2.3,2.3-2.3s2.3,1,2.3,2.3c0,1.3-1,2.3-2.3,2.3
			S277.8,181.2,277.8,179.9z M277.8,166.2c0-1.3,1-2.3,2.3-2.3s2.3,1,2.3,2.3c0,1.3-1,2.3-2.3,2.3S277.8,167.5,277.8,166.2z
			 M277.8,152.6c0-1.3,1-2.3,2.3-2.3s2.3,1,2.3,2.3s-1,2.3-2.3,2.3S277.8,153.8,277.8,152.6z M277.8,138.9c0-1.3,1-2.3,2.3-2.3
			s2.3,1,2.3,2.3c0,1.3-1,2.3-2.3,2.3S277.8,140.1,277.8,138.9z M277.8,125.2c0-1.3,1-2.3,2.3-2.3s2.3,1,2.3,2.3s-1,2.3-2.3,2.3
			S277.8,126.5,277.8,125.2z M277.8,111.5c0-1.3,1-2.3,2.3-2.3s2.3,1,2.3,2.3s-1,2.3-2.3,2.3S277.8,112.8,277.8,111.5z M277.8,97.8
			c0-1.3,1-2.3,2.3-2.3s2.3,1,2.3,2.3c0,1.3-1,2.3-2.3,2.3S277.8,99.1,277.8,97.8z M277.8,84.2c0-1.3,1-2.3,2.3-2.3s2.3,1,2.3,2.3
			c0,1.3-1,2.3-2.3,2.3S277.8,85.4,277.8,84.2z M277.8,70.5c0-1.3,1-2.3,2.3-2.3s2.3,1,2.3,2.3c0,1.3-1,2.3-2.3,2.3
			S277.8,71.7,277.8,70.5z M277.8,56.8c0-1.3,1-2.3,2.3-2.3s2.3,1,2.3,2.3c0,1.3-1,2.3-2.3,2.3S277.8,58.1,277.8,56.8z M245.9,318.9
			c-1.3,0-2.3-1-2.3-2.3s1-2.3,2.3-2.3s2.3,1,2.3,2.3S247.2,318.9,245.9,318.9z M262.9,317.8c-2.6,0-4.8-2.1-4.8-4.8
			c0-2.6,2.1-4.8,4.8-4.8c2.6,0,4.8,2.1,4.8,4.8C267.7,315.7,265.5,317.8,262.9,317.8z M262.9,65.3c-2.6,0-4.8-2.1-4.8-4.8
			c0-2.6,2.1-4.8,4.8-4.8c2.6,0,4.8,2.1,4.8,4.8C267.7,63.1,265.5,65.3,262.9,65.3z"/>
		<path id="path70-7" class="st11" d="M286.6,49.5H177.9c-1.2,0-2.2,1-2.2,2.2v2.9l0,0c0.4,0,0.7,0.1,1,0.3v-3
			c0-0.7,0.6-1.3,1.3-1.3h108.3c0.4,0,0.7,0.2,1,0.4l0.8-0.8C287.8,49.7,287.2,49.5,286.6,49.5z"/>
		<path id="path72-1" class="st11" d="M175.7,72.8v9.1l0,0c0.4,0,0.7,0.1,1,0.3v-9.6C176.4,72.7,176.1,72.8,175.7,72.8
			C175.7,72.8,175.7,72.8,175.7,72.8z"/>
		<path id="path74-4" class="st11" d="M175.7,86.5v9.1l0,0c0.4,0,0.7,0.1,1,0.3v-9.6C176.4,86.4,176.1,86.5,175.7,86.5
			C175.7,86.5,175.7,86.5,175.7,86.5z"/>
		<path id="path76-1" class="st11" d="M175.7,100.1v9.1l0,0c0.4,0,0.7,0.1,1,0.3v-9.6C176.4,100,176.1,100.1,175.7,100.1
			C175.7,100.1,175.7,100.1,175.7,100.1z"/>
		<path id="path78-4" class="st11" d="M175.7,113.8v9.1l0,0c0.4,0,0.7,0.1,1,0.3v-9.6C176.4,113.7,176.1,113.8,175.7,113.8
			L175.7,113.8z"/>
		<path id="path80-4" class="st11" d="M175.7,127.5v9.1l0,0c0.4,0,0.7,0.1,1,0.3v-9.6C176.4,127.4,176.1,127.5,175.7,127.5
			L175.7,127.5z"/>
		<path id="path82-3" class="st11" d="M175.7,141.2v9.1l0,0c0.4,0,0.7,0.1,1,0.3v-9.6C176.4,141.1,176.1,141.2,175.7,141.2
			L175.7,141.2z"/>
		<path id="path84-1" class="st11" d="M175.7,154.9v9.1l0,0c0.4,0,0.7,0.1,1,0.3v-9.6C176.4,154.7,176.1,154.9,175.7,154.9
			L175.7,154.9z"/>
		<path id="path86-6" class="st11" d="M175.7,168.5v9.1l0,0c0.4,0,0.7,0.1,1,0.3v-9.6C176.4,168.4,176.1,168.5,175.7,168.5
			L175.7,168.5z"/>
		<path id="path88-1" class="st11" d="M175.7,182.2v9.1l0,0c0.4,0,0.7,0.1,1,0.3v-9.6C176.4,182.1,176.1,182.2,175.7,182.2
			L175.7,182.2z"/>
		<path id="path90-9" class="st11" d="M175.7,195.9v9.1l0,0c0.4,0,0.7,0.1,1,0.3v-9.6C176.4,195.8,176.1,195.9,175.7,195.9
			L175.7,195.9z"/>
		<path id="path92-4" class="st11" d="M175.7,209.6v9.1l0,0c0.4,0,0.7,0.1,1,0.3v-9.6C176.4,209.4,176.1,209.6,175.7,209.6
			L175.7,209.6z"/>
		<path id="path94-8" class="st11" d="M175.7,223.2v9.1l0,0c0.4,0,0.7,0.1,1,0.3V223C176.4,223.1,176.1,223.2,175.7,223.2
			L175.7,223.2z"/>
		<path id="path96-6" class="st11" d="M175.7,236.9v9.1l0,0c0.4,0,0.7,0.1,1,0.3v-9.6C176.4,236.8,176.1,236.9,175.7,236.9
			L175.7,236.9z"/>
		<path id="path98-5" class="st11" d="M175.7,250.6v9.1l0,0c0.4,0,0.7,0.1,1,0.3v-9.6C176.4,250.5,176.1,250.6,175.7,250.6
			L175.7,250.6z"/>
		<path id="path100-2" class="st11" d="M175.7,264.3v9.1l0,0c0.4,0,0.7,0.1,1,0.3V264C176.4,264.2,176.1,264.3,175.7,264.3
			L175.7,264.3z"/>
		<path id="path102-3" class="st11" d="M175.7,277.9v9.1l0,0c0.4,0,0.7,0.1,1,0.3v-9.6C176.4,277.8,176.1,277.9,175.7,277.9
			L175.7,277.9z"/>
		<path id="path104-8" class="st11" d="M175.7,291.6v9.1l0,0c0.4,0,0.7,0.1,1,0.3v-9.6C176.4,291.5,176.1,291.6,175.7,291.6
			L175.7,291.6z"/>
		<path id="path106-2" class="st11" d="M175.7,305.3v9.1l0,0c0.4,0,0.7,0.1,1,0.3V305C176.4,305.2,176.1,305.3,175.7,305.3
			L175.7,305.3z"/>
		<path id="path108-7" class="st11" d="M175.7,59.1v9.1l0,0c0.4,0,0.7,0.1,1,0.3v-9.6C176.4,59,176.1,59.1,175.7,59.1L175.7,59.1z"
			/>
		<path id="path112-4" class="st11" d="M176.3,323.4l0.8-0.8c-0.2-0.2-0.4-0.6-0.4-1v-3c-0.3,0.2-0.7,0.3-1,0.3v2.9
			C175.7,322.5,175.9,323,176.3,323.4z"/>
		<ellipse id="circle119-6" class="st12" cx="201.6" cy="313" rx="6.7" ry="6.7"/>
		
			<ellipse id="circle125-9" transform="matrix(0.9975 -7.088897e-02 7.088897e-02 0.9975 -21.5293 19.4248)" class="st12" cx="262.9" cy="313" rx="6.7" ry="6.7"/>
		<ellipse id="circle131-2" class="st12" cx="201.6" cy="60.5" rx="6.7" ry="6.7"/>
		
			<ellipse id="circle137-0" transform="matrix(0.9991 -4.155853e-02 4.155853e-02 0.9991 -2.2867 10.9783)" class="st12" cx="262.9" cy="60.5" rx="6.7" ry="6.7"/>
		<rect id="Pico_2040_1_-4" x="213.3" y="167.8" class="st13" width="37.9" height="37.9"/>
		<path id="path145-6" class="st14" d="M250,71h-35.5c-0.6,0-1.1-0.5-1.1-1.1V43.4c0-0.6,0.5-1.1,1.1-1.1H250c0.6,0,1.1,0.5,1.1,1.1
			v26.5C251.1,70.5,250.6,71,250,71z"/>
		<path id="path147-2" class="st15" d="M216.1,38.7c-0.5,0-0.9,0.3-1,0.8l-0.6,2l-1.1,1.1v27.4c0,0.6,0.5,1.1,1.1,1.1h6.6
			c0.3,0,0.5-0.2,0.5-0.5v-1.6c0-0.4-0.2-0.8-0.6-0.9l-3.7-2c-0.3-0.2-0.6-0.6-0.6-0.9v-1.6h2.4v-1.8h3.7v1.8h2.2v3.7
			c0,0.6,0.5,1.1,1.1,1.1h1.7v-1.9h8.7v1.9h1.7c0.6,0,1.1-0.5,1.1-1.1v-3.7h2.2v-1.8h3.7v1.8h2.4V65c0,0.4-0.2,0.8-0.6,0.9l-3.7,2
			c-0.3,0.2-0.6,0.6-0.6,0.9v1.6c0,0.3,0.2,0.5,0.5,0.5h6.6c0.6,0,1.1-0.5,1.1-1.1V42.5l-1.1-1.1l-0.6-2c-0.1-0.5-0.6-0.8-1-0.8
			H216.1z"/>
		<path id="path151-5" class="st15" d="M214.6,44.2c-0.5-0.6-1-1.3-1.4-2c-0.4-0.7-0.8-1.6-0.9-2.4l0,0c-0.1-0.3,0.2-0.7,0.5-0.8
			c0.3-0.1,0.6,0.1,0.7,0.4c0.4,1.4,1.4,2.4,2.5,3.5c0.4,0.4,0.4,1,0,1.3s-1,0.4-1.3,0C214.6,44.2,214.6,44.2,214.6,44.2L214.6,44.2
			z"/>
		<path id="path153-8" class="st15" d="M248.5,42.9c1.1-1.1,2.1-2.1,2.5-3.5c0.1-0.3,0.5-0.5,0.8-0.4c0.3,0.1,0.5,0.4,0.4,0.7l0,0
			c-0.2,0.8-0.5,1.7-0.9,2.4c-0.4,0.7-0.9,1.4-1.4,2c-0.3,0.4-0.9,0.5-1.3,0.2c-0.4-0.3-0.5-0.9-0.2-1.3
			C248.4,43,248.4,42.9,248.5,42.9L248.5,42.9z"/>
		<path id="path156-4" class="st15" d="M226.6,240h-14c-0.6,0-1.1-0.5-1.1-1.1v-8.6c0-0.6,0.5-1.1,1.1-1.1h14c0.6,0,1.1,0.5,1.1,1.1
			v8.6C227.7,239.5,227.2,240,226.6,240z"/>
		<g transform="rotate(90)">
			<g>
				<g>
					
						<rect id="rect158-7" x="144.5" y="-219.9" transform="matrix(2.535182e-06 1 -1 2.535182e-06 -61.9583 -361.7716)" class="st16" width="10.8" height="16.2"/>
				</g>
			</g>
		</g>
		<g transform="rotate(90)">
			<g>
				<g>
					
						<rect id="rect170-3" x="99.2" y="-254.2" transform="matrix(2.535182e-06 1 -1 2.535182e-06 -141.553 -353.3978)" class="st16" width="13.5" height="13.5"/>
				</g>
			</g>
		</g>
		<g transform="rotate(90)">
			<g>
				<g>
					
						<rect id="rect182-1" x="78.6" y="-270.9" transform="matrix(2.535182e-06 1 -1 2.535182e-06 -181.5792 -346.8378)" class="st16" width="8.1" height="13.5"/>
				</g>
			</g>
		</g>
		<g transform="rotate(90)">
			<g>
				<g>
					
						<rect id="rect194-3" x="69.6" y="-204.2" transform="matrix(2.535182e-06 1 -1 2.535182e-06 -127.85 -275.2238)" class="st17" width="8.1" height="5.4"/>
				</g>
			</g>
		</g>
		<path id="path206-3" class="st18" d="M206.3,101.1h14c0.6,0,1.1,0.5,1.1,1.1v19.4c0,0.6-0.5,1.1-1.1,1.1h-14
			c-0.6,0-1.1-0.5-1.1-1.1v-19.4C205.2,101.5,205.7,101.1,206.3,101.1z"/>
		<path id="path208-5" class="st4" d="M213.3,102.4L213.3,102.4c3.7,0,6.7,3,6.7,6.7v5.4c0,3.7-3,6.7-6.7,6.7l0,0
			c-3.7,0-6.7-3-6.7-6.7v-5.4C206.5,105.4,209.6,102.4,213.3,102.4z"/>
		<path id="path210-4" class="st4" d="M205.2,102.1v2c0,1,1.2,1.4,1.8,0.8l2-2c0.7-0.7,0.2-1.8-0.8-1.8h-2
			C205.7,101.1,205.2,101.5,205.2,102.1z"/>
		<path id="path212-9" class="st4" d="M220.3,101.1h-2c-1,0-1.4,1.2-0.8,1.8l2,2c0.7,0.7,1.8,0.2,1.8-0.8v-2
			C221.4,101.5,220.9,101.1,220.3,101.1z"/>
		<path id="path214-1" class="st4" d="M221.4,121.5v-2c0-1-1.2-1.4-1.8-0.8l-2,2c-0.7,0.7-0.2,1.8,0.8,1.8h2
			C220.9,122.5,221.4,122.1,221.4,121.5z"/>
		<path id="path216-3" class="st4" d="M206.3,122.5h2c1,0,1.4-1.2,0.8-1.8l-2-2c-0.7-0.7-1.8-0.2-1.8,0.8v2
			C205.2,122.1,205.7,122.5,206.3,122.5z"/>
		<path id="path220-1" class="st16" d="M258.8,111.6v-11.3c0-0.6,0.5-1.1,1.1-1.1h8.6c0.6,0,1.1,0.5,1.1,1.1v11.3
			c0,0.6-0.5,1.1-1.1,1.1h-8.6C259.3,112.7,258.8,112.2,258.8,111.6z"/>
		<ellipse id="circle222-6" class="st19" cx="200.3" cy="73.8" rx="1.3" ry="1.3"/>
		<g transform="rotate(-90)">
			<g>
				<g>
					
						<rect id="rect224-5" x="-124.5" y="243.4" transform="matrix(-2.535182e-06 -1 1 -2.535182e-06 -366.5511 128.3987)" class="st15" width="10.8" height="8.1"/>
				</g>
			</g>
		</g>
		<rect id="rect236-9" x="252.9" y="129.7" class="st15" width="5.4" height="10.8"/>
		<rect id="rect238-5" x="252.9" y="131.6" class="st16" width="5.4" height="7"/>
		<g transform="rotate(-90)">
			<g>
				<g>
					
						<rect id="rect240-9" x="-98" y="243.4" transform="matrix(-2.535182e-06 -1 1 -2.535182e-06 -340.0977 154.8554)" class="st15" width="10.8" height="8.1"/>
				</g>
			</g>
		</g>
		<g transform="rotate(-90)">
			<g>
				<g>
					
						<rect id="rect252-6" x="-96.7" y="243.4" transform="matrix(-2.535182e-06 -1 1 -2.535182e-06 -340.0968 154.8545)" class="st20" width="8.1" height="8.1"/>
				</g>
			</g>
		</g>
		<g transform="rotate(-90)">
			<g>
				<g>
					
						<rect id="rect264-7" x="-123.1" y="243.4" transform="matrix(-2.535182e-06 -1 1 -2.535182e-06 -366.552 128.3996)" class="st20" width="8.1" height="8.1"/>
				</g>
			</g>
		</g>
		<ellipse id="circle276-8" class="st21" cx="201.2" cy="88.5" rx="2.3" ry="2.3"/>
		
			<ellipse id="circle278-9" transform="matrix(7.088886e-02 -0.9975 0.9975 7.088886e-02 -44.8698 535.0189)" class="st21" cx="264.8" cy="291.6" rx="2.3" ry="2.3"/>
		<g transform="rotate(90)">
			<g>
				<g>
					
						<rect id="rect281-6" x="86" y="-218.5" transform="matrix(2.535182e-06 1 -1 2.535182e-06 -128.5184 -305.8269)" class="st15" width="5.4" height="2.7"/>
				</g>
			</g>
		</g>
		<g transform="rotate(90)">
			<g>
				<g>
					
						<rect id="rect293-2" x="86.6" y="-218.5" transform="matrix(2.535182e-06 1 -1 2.535182e-06 -128.5194 -305.8278)" class="st16" width="4" height="2.7"/>
				</g>
			</g>
		</g>
		<g transform="scale(-1)">
			<g>
				<g>
					<rect id="rect305-5" x="-267.8" y="-162.1" class="st15" width="2.7" height="5.4"/>
				</g>
			</g>
		</g>
		<g transform="scale(-1)">
			<g>
				<g>
					<rect id="rect317-8" x="-267.8" y="-161.4" class="st16" width="2.7" height="4"/>
				</g>
			</g>
		</g>
		<g transform="scale(-1)">
			<g>
				<g>
					<rect id="rect329-9" x="-267.8" y="-162.1" class="st15" width="2.7" height="5.4"/>
				</g>
			</g>
		</g>
		<g transform="matrix(3.5185826e-8,-1,1,6.7873937e-6,0,0)">
			<g>
				<g>
					
						<rect id="rect341-6" x="-149.5" y="265.7" transform="matrix(-2.535182e-06 -1 1 -2.535182e-06 -412.4291 121.568)" class="st16" width="8.1" height="2.7"/>
				</g>
			</g>
		</g>
		<g transform="scale(-1)">
			<g>
				<g>
					<rect id="rect353-0" x="-267.8" y="-161.4" class="st16" width="2.7" height="4"/>
				</g>
			</g>
		</g>
		<g transform="scale(-1)">
			<g>
				<g>
					<rect id="rect365-4" x="-262.6" y="-162.1" class="st15" width="2.7" height="5.4"/>
				</g>
			</g>
		</g>
		<g transform="scale(-1)">
			<g>
				<g>
					<rect id="rect377-1" x="-262.6" y="-161.4" class="st16" width="2.7" height="4"/>
				</g>
			</g>
		</g>
		<g transform="scale(-1)">
			<g>
				<g>
					<rect id="rect389-6" x="-257.5" y="-162.1" class="st15" width="2.7" height="5.4"/>
				</g>
			</g>
		</g>
		<g transform="scale(-1)">
			<g>
				<g>
					<rect id="rect401-7" x="-257.5" y="-161.4" class="st21" width="2.7" height="4"/>
				</g>
			</g>
		</g>
		<g transform="scale(-1)">
			<g>
				<g>
					<rect id="rect413-5" x="-240.7" y="-161.4" class="st15" width="2" height="4"/>
				</g>
			</g>
		</g>
		<g transform="scale(-1)">
			<g>
				<g>
					<rect id="rect425-9" x="-240.7" y="-160.7" class="st16" width="2" height="2.7"/>
				</g>
			</g>
		</g>
		<g transform="scale(-1)">
			<g>
				<g>
					<rect id="rect437-1" x="-236.8" y="-161.4" class="st15" width="2" height="4"/>
				</g>
			</g>
		</g>
		<g transform="scale(-1)">
			<g>
				<g>
					<rect id="rect449-4" x="-236.8" y="-160.7" class="st16" width="2" height="2.7"/>
				</g>
			</g>
		</g>
		<g transform="scale(-1)">
			<g>
				<g>
					<rect id="rect461-8" x="-232.9" y="-161.4" class="st15" width="2" height="4"/>
				</g>
			</g>
		</g>
		<g transform="scale(-1)">
			<g>
				<g>
					<rect id="rect473-5" x="-232.9" y="-160.7" class="st21" width="2" height="2.7"/>
				</g>
			</g>
		</g>
		<g transform="scale(-1)">
			<g>
				<g>
					<rect id="rect485-2" x="-265.2" y="-135.6" class="st15" width="2" height="4"/>
				</g>
			</g>
		</g>
		<g transform="scale(-1)">
			<g>
				<g>
					<rect id="rect497-6" x="-265.2" y="-135" class="st21" width="2" height="2.7"/>
				</g>
			</g>
		</g>
		<g transform="scale(-1)">
			<g>
				<g>
					<rect id="rect509-6" x="-229.1" y="-161.4" class="st15" width="2" height="4"/>
				</g>
			</g>
		</g>
		<g transform="scale(-1)">
			<g>
				<g>
					<rect id="rect521-5" x="-229.1" y="-160.7" class="st21" width="2" height="2.7"/>
				</g>
			</g>
		</g>
		<g transform="scale(-1)">
			<g>
				<g>
					<rect id="rect533-6" x="-208.5" y="-139.2" class="st15" width="2" height="4"/>
				</g>
			</g>
		</g>
		<g transform="scale(-1)">
			<g>
				<g>
					<rect id="rect545-8" x="-208.5" y="-138.5" class="st21" width="2" height="2.7"/>
				</g>
			</g>
		</g>
		<g transform="scale(-1)">
			<g>
				<g>
					<rect id="rect557-0" x="-236.9" y="-216.8" class="st15" width="2" height="4"/>
				</g>
			</g>
		</g>
		<g transform="scale(-1)">
			<g>
				<g>
					<rect id="rect569-5" x="-236.9" y="-216.2" class="st21" width="2" height="2.7"/>
				</g>
			</g>
		</g>
		<g transform="scale(-1)">
			<g>
				<g>
					<rect id="rect581-2" x="-233" y="-216.8" class="st15" width="2" height="4"/>
				</g>
			</g>
		</g>
		<g transform="scale(-1)">
			<g>
				<g>
					<rect id="rect593-2" x="-233" y="-216.2" class="st21" width="2" height="2.7"/>
				</g>
			</g>
		</g>
		<g transform="scale(-1)">
			<g>
				<g>
					<rect id="rect605-3" x="-233" y="-233.3" class="st15" width="2" height="4"/>
				</g>
			</g>
		</g>
		<g transform="scale(-1)">
			<g>
				<g>
					<rect id="rect617-1" x="-233" y="-232.6" class="st21" width="2" height="2.7"/>
				</g>
			</g>
		</g>
		<g transform="scale(-1)">
			<g>
				<g>
					<rect id="rect629-6" x="-207.8" y="-240" class="st15" width="2" height="4"/>
				</g>
			</g>
		</g>
		<g transform="scale(-1)">
			<g>
				<g>
					<rect id="rect641-4" x="-207.8" y="-239.3" class="st21" width="2" height="2.7"/>
				</g>
			</g>
		</g>
		<g transform="scale(-1)">
			<g>
				<g>
					<rect id="rect653-4" x="-250.2" y="-162.1" class="st15" width="2.7" height="5.4"/>
				</g>
			</g>
		</g>
		<g transform="scale(-1)">
			<g>
				<g>
					<rect id="rect665-7" x="-250.2" y="-161.4" class="st21" width="2.7" height="4"/>
				</g>
			</g>
		</g>
		<g transform="scale(-1)">
			<g>
				<g>
					<rect id="rect677-1" x="-245" y="-162.1" class="st15" width="2.7" height="5.4"/>
				</g>
			</g>
		</g>
		<g transform="scale(-1)">
			<g>
				<g>
					<rect id="rect689-0" x="-245" y="-161.4" class="st21" width="2.7" height="4"/>
				</g>
			</g>
		</g>
		<g transform="rotate(90)">
			<g>
				<g>
					
						<rect id="rect701-5" x="81.3" y="-218.5" transform="matrix(2.535182e-06 1 -1 2.535182e-06 -133.1969 -301.1472)" class="st15" width="5.4" height="2.7"/>
				</g>
			</g>
		</g>
		<g transform="rotate(90)">
			<g>
				<g>
					
						<rect id="rect713-6" x="82" y="-218.5" transform="matrix(2.535182e-06 1 -1 2.535182e-06 -133.1979 -301.1481)" class="st16" width="4" height="2.7"/>
				</g>
			</g>
		</g>
		<g transform="rotate(90)">
			<g>
				<g>
					
						<rect id="rect725-4" x="81.3" y="-248.8" transform="matrix(2.535182e-06 1 -1 2.535182e-06 -163.5006 -331.4489)" class="st15" width="5.4" height="2.7"/>
				</g>
			</g>
		</g>
		<g transform="rotate(90)">
			<g>
				<g>
					
						<rect id="rect737-1" x="82" y="-248.8" transform="matrix(2.535182e-06 1 -1 2.535182e-06 -163.5016 -331.4499)" class="st16" width="4" height="2.7"/>
				</g>
			</g>
		</g>
		<g transform="scale(-1)">
			<g>
				<g>
					<rect id="rect749-3" x="-203.9" y="-147.2" class="st15" width="2.7" height="5.4"/>
				</g>
			</g>
		</g>
		<g transform="scale(-1)">
			<g>
				<g>
					<rect id="rect761-8" x="-203.9" y="-146.5" class="st16" width="2.7" height="4"/>
				</g>
			</g>
		</g>
		<g transform="scale(-1)">
			<g>
				<g>
					<rect id="rect773-5" x="-203.9" y="-158" class="st15" width="2.7" height="5.4"/>
				</g>
			</g>
		</g>
		<g transform="scale(-1)">
			<g>
				<g>
					<rect id="rect785-5" x="-203.9" y="-157.3" class="st16" width="2.7" height="4"/>
				</g>
			</g>
		</g>
		<g transform="scale(-1)">
			<g>
				<g>
					<rect id="rect797-2" x="-270.4" y="-135.1" class="st15" width="2.7" height="5.4"/>
				</g>
			</g>
		</g>
		<g transform="scale(-1)">
			<g>
				<g>
					<rect id="rect809-1" x="-270.4" y="-134.5" class="st16" width="2.7" height="4"/>
				</g>
			</g>
		</g>
		<g transform="rotate(90.000021)">
			<g>
				<g>
					
						<rect id="rect821-4" x="169" y="-257.3" transform="matrix(2.535182e-06 1 -1 2.535182e-06 -85.3336 -427.316)" class="st15" width="4" height="2"/>
				</g>
			</g>
		</g>
		<g transform="rotate(90.000021)">
			<g>
				<g>
					
						<rect id="rect833-9" x="169.6" y="-257.3" transform="matrix(2.535182e-06 1 -1 2.535182e-06 -85.3345 -427.3169)" class="st21" width="2.7" height="2"/>
				</g>
			</g>
		</g>
		<g transform="rotate(90.000021)">
			<g>
				<g>
					
						<rect id="rect845-9" x="171" y="-208.8" transform="matrix(2.535182e-06 1 -1 2.535182e-06 -34.7167 -380.8522)" class="st15" width="4" height="2"/>
				</g>
			</g>
		</g>
		<g transform="rotate(90.000021)">
			<g>
				<g>
					
						<rect id="rect857-7" x="171.7" y="-208.8" transform="matrix(2.535182e-06 1 -1 2.535182e-06 -34.7158 -380.8513)" class="st21" width="2.7" height="2"/>
				</g>
			</g>
		</g>
		<g transform="rotate(90.000021)">
			<g>
				<g>
					
						<rect id="rect869-5" x="191" y="-208.8" transform="matrix(2.535182e-06 1 -1 2.535182e-06 -14.7618 -400.8053)" class="st15" width="4" height="2"/>
				</g>
			</g>
		</g>
		<g transform="rotate(90.000021)">
			<g>
				<g>
					
						<rect id="rect881-6" x="191.7" y="-208.8" transform="matrix(2.535182e-06 1 -1 2.535182e-06 -14.7628 -400.8062)" class="st21" width="2.7" height="2"/>
				</g>
			</g>
		</g>
		<g transform="matrix(-0.70710824,0.70710532,-0.70710824,-0.70710532,0,0)">
			<g>
				<g>
					<rect id="rect893-5" x="-45.2" y="-321.7" class="st15" width="2" height="4"/>
				</g>
			</g>
		</g>
		<g transform="matrix(-0.70710824,0.70710532,-0.70710824,-0.70710532,0,0)">
			<g>
				<g>
					<rect id="rect905-7" x="-45.2" y="-321.1" class="st21" width="2" height="2.7"/>
				</g>
			</g>
		</g>
		<g transform="rotate(-89.999979)">
			<g>
				<g>
					
						<rect id="rect917-9" x="-191.7" y="263.3" transform="matrix(-2.535182e-06 -1 1 -2.535182e-06 -453.6828 75.6199)" class="st15" width="5.4" height="2.7"/>
				</g>
			</g>
		</g>
		<g transform="rotate(-89.999979)">
			<g>
				<g>
					
						<rect id="rect929-1" x="-191.1" y="263.3" transform="matrix(-2.535182e-06 -1 1 -2.535182e-06 -453.6838 75.6208)" class="st16" width="4" height="2.7"/>
				</g>
			</g>
		</g>
		<g transform="rotate(-89.999979)">
			<g>
				<g>
					
						<rect id="rect941-2" x="-191.7" y="263.3" transform="matrix(-2.535182e-06 -1 1 -2.535182e-06 -453.6828 75.6199)" class="st15" width="5.4" height="2.7"/>
				</g>
			</g>
		</g>
		<g transform="rotate(-89.999979)">
			<g>
				<g>
					
						<rect id="rect953-4" x="-191.1" y="263.3" transform="matrix(-2.535182e-06 -1 1 -2.535182e-06 -453.6838 75.6208)" class="st16" width="4" height="2.7"/>
				</g>
			</g>
		</g>
		<g transform="rotate(-89.999979)">
			<g>
				<g>
					
						<rect id="rect965-3" x="-186.6" y="263.3" transform="matrix(-2.535182e-06 -1 1 -2.535182e-06 -448.5389 80.7673)" class="st15" width="5.4" height="2.7"/>
				</g>
			</g>
		</g>
		<g transform="rotate(-89.999979)">
			<g>
				<g>
					
						<rect id="rect977-2" x="-185.9" y="263.3" transform="matrix(-2.535182e-06 -1 1 -2.535182e-06 -448.5379 80.7663)" class="st16" width="4" height="2.7"/>
				</g>
			</g>
		</g>
		<g transform="rotate(-89.999978)">
			<g>
				<g>
					
						<rect id="rect989-6" x="-171" y="205.1" transform="matrix(-2.535182e-06 -1 1 -2.535182e-06 -374.6967 38.1816)" class="st15" width="5.4" height="2.7"/>
				</g>
			</g>
		</g>
		<g transform="rotate(-89.999978)">
			<g>
				<g>
					
						<rect id="rect1001-5" x="-170.3" y="205.1" transform="matrix(-2.535182e-06 -1 1 -2.535182e-06 -374.6958 38.1807)" class="st21" width="4" height="2.7"/>
				</g>
			</g>
		</g>
		<g transform="rotate(-89.999979)">
			<g>
				<g>
					
						<rect id="rect1013-3" x="-226.3" y="224.4" transform="matrix(-2.535182e-06 -1 1 -2.535182e-06 -449.3466 2.1168)" class="st15" width="5.4" height="2.7"/>
				</g>
			</g>
		</g>
		<g transform="rotate(-89.999979)">
			<g>
				<g>
					
						<rect id="rect1025-2" x="-225.6" y="224.4" transform="matrix(-2.535182e-06 -1 1 -2.535182e-06 -449.3457 2.1158)" class="st16" width="4" height="2.7"/>
				</g>
			</g>
		</g>
		<g transform="rotate(-89.999979)">
			<g>
				<g>
					
						<rect id="rect1037-0" x="-226.3" y="224.4" transform="matrix(-2.535182e-06 -1 1 -2.535182e-06 -449.3466 2.1168)" class="st15" width="5.4" height="2.7"/>
				</g>
			</g>
		</g>
		<g transform="rotate(-89.999979)">
			<g>
				<g>
					
						<rect id="rect1049-2" x="-225.6" y="224.4" transform="matrix(-2.535182e-06 -1 1 -2.535182e-06 -449.3457 2.1158)" class="st16" width="4" height="2.7"/>
				</g>
			</g>
		</g>
		<path id="path1062-7" class="st4" d="M248.7,270.1l-0.4-0.6c0-4.5-2.1-6.3-4.5-7.6c0.7-0.2,1.5-0.4,1.7-1.3
			c1.3-0.3,1.5-0.9,1.7-1.5c0.3-0.2,1.5-0.9,1.3-1.9c0.6-0.4,1-1,0.8-1.8c0.7-0.7,0.9-1.3,0.6-1.9c0.8-1,0.5-1.5,0.1-2.1
			c0.6-1.1,0.1-2.3-1.6-2.1c-0.7-1-2.1-0.8-2.4-0.8c-0.3-0.3-0.6-0.6-1.6-0.5c-0.7-0.6-1.4-0.5-2.2-0.2c-0.9-0.7-1.5-0.1-2.2,0.1
			c-1.1-0.4-1.4,0.1-1.9,0.3c-1.2-0.3-1.6,0.3-2.2,0.9h-0.7c-1.8,1.1-2.6,3.1-3,4.2c-0.3-1.1-1.2-3.2-3-4.2h-0.7
			c-0.6-0.6-0.9-1.1-2.2-0.9c-0.5-0.2-0.8-0.7-1.9-0.3c-0.5-0.1-0.9-0.4-1.4-0.4l0,0c-0.3,0-0.5,0.1-0.9,0.3
			c-0.8-0.3-1.5-0.4-2.2,0.2c-1-0.1-1.4,0.1-1.6,0.5c-0.2,0-1.7-0.2-2.4,0.8c-1.7-0.2-2.2,1-1.6,2.1c-0.3,0.5-0.7,1,0.1,2.1
			c-0.3,0.6-0.1,1.2,0.6,1.9c-0.2,0.8,0.2,1.3,0.8,1.8c-0.1,1.1,1,1.7,1.3,1.9c0.1,0.6,0.4,1.2,1.7,1.5c0.2,0.9,1,1.1,1.7,1.3
			c-2.5,1.4-4.5,3.2-4.5,7.6l-0.4,0.6c-2.7,1.7-5.3,7-1.4,11.4c0.3,1.4,0.7,2.4,1.1,3.4c0.6,4.3,4.3,6.4,5.3,6.7
			c1.5,1.1,2.9,2.1,5,2.8c2,2,4,2.7,6.2,2.7h0.1c2.2,0,4.2-0.8,6.2-2.7c2.1-0.7,3.6-1.8,5-2.8c1-0.2,4.7-2.3,5.3-6.7
			c0.4-1.1,0.8-2.1,1.1-3.4C254,277.1,251.5,271.8,248.7,270.1z M246.6,269.3c-0.1,1.8-9.5-6.3-7.9-6.6
			C243.1,262.1,246.7,264.6,246.6,269.3z M242.4,278.2c-2.4,1.6-5.8,0.6-7.5-2.2c-1.9-2.7-1.4-6.2,1-7.7s5.8-0.6,7.5,2.2
			C245.3,273.3,244.8,276.8,242.4,278.2z M236,250.5c0.1,0.4,0.2,0.7,0.3,0.7c0.5-0.6,1-1.2,1.6-1.7c0,0.3-0.2,0.7,0.2,0.9
			c0.4-0.5,0.9-0.9,1.5-1.3c-0.3,0.5-0.1,0.7,0.1,0.9c0.5-0.4,1-0.9,1.9-1.2c-0.3,0.3-0.6,0.6-0.2,1c0.5-0.3,1-0.6,2.3-0.9
			c-0.3,0.3-0.9,0.6-0.5,0.9c0.7-0.2,1.4-0.4,2.2-0.5c-0.4,0.3-0.7,0.6-0.4,0.9c0.7-0.2,1.7-0.5,2.5-0.3l-0.6,0.6
			c-0.1,0.1,1.4,0.1,2.3,0.1c-0.3,0.5-0.7,1-0.9,1.8c0.1,0.1,0.6,0,1,0c-0.5,1-1.3,1.2-1.4,1.6c0.3,0.2,0.7,0.2,1.1,0
			c-0.3,0.7-1,1.1-1.6,1.7c0.1,0.1,0.4,0.2,1,0.1c-0.5,0.5-1.1,1-1.8,1.5c0.1,0.1,0.6,0.1,1,0.2c-0.7,0.6-1.5,1-2.3,1.4
			c0.4,0.3,0.7,0.2,1,0.2c-0.6,0.5-1.5,0.7-2.4,1c0.2,0.3,0.3,0.3,0.7,0.4c-0.9,0.5-2.3,0.3-2.6,0.5c0.1,0.3,0.3,0.4,0.7,0.6
			c-1.5,0.1-5.5-0.1-6.3-3.1c1.5-1.7,4.3-3.6,9-6c-3.7,1.3-7.1,2.8-9.8,5.2C232,255.9,234.3,252.1,236,250.5L236,250.5z
			 M232.6,261.6L232.6,261.6c2.4,0,5.2,1.7,5.2,3.3c0,1.5-2.1,2.6-5.2,2.5c-3.1,0-5.2-1.5-5.2-2.8
			C227.4,263.4,230,261.5,232.6,261.6z M220.8,260.3c0.4-0.1,0.5-0.1,0.7-0.4c-0.9-0.3-1.8-0.5-2.4-1c0.3,0,0.6,0.1,1-0.2
			c-0.8-0.4-1.6-0.8-2.3-1.4c0.4,0,0.9,0,1-0.2c-0.7-0.4-1.3-0.9-1.8-1.5c0.6,0.1,0.8,0,1-0.1c-0.5-0.6-1.2-1-1.6-1.7
			c0.4,0.1,0.8,0.2,1.1,0c-0.2-0.4-1-0.7-1.4-1.6c0.4,0,0.9,0.1,1,0c-0.2-0.8-0.6-1.3-0.9-1.8c1,0,2.4,0,2.3-0.1l-0.6-0.6
			c0.9-0.2,1.9,0,2.5,0.3c0.3-0.2,0-0.5-0.4-0.9c0.8,0.1,1.5,0.3,2.2,0.5c0.3-0.3-0.2-0.6-0.5-0.9c1.2,0.2,1.8,0.6,2.3,0.9
			c0.4-0.4,0-0.7-0.2-1c0.9,0.3,1.4,0.8,1.9,1.2c0.2-0.2,0.4-0.4,0.1-0.9c0.7,0.4,1.2,0.8,1.5,1.3c0.4-0.3,0.2-0.6,0.2-0.9
			c0.7,0.5,1.1,1.1,1.6,1.7c0.1-0.1,0.2-0.3,0.3-0.7c1.6,1.6,3.8,5.4,0.6,6.9c-2.7-2.3-6.1-3.9-9.8-5.2c4.7,2.5,7.5,4.3,9,6
			c-0.8,3-4.8,3.2-6.3,3.1c0.3-0.1,0.6-0.3,0.7-0.6C223,260.6,221.7,260.8,220.8,260.3L220.8,260.3z M226.5,262.7
			c1.7,0.3-7.7,8.3-7.9,6.6C218.5,264.5,222.1,262,226.5,262.7z M216.6,280.6c-2.3-1.8-3-7.1,1.2-9.5
			C220.4,270.5,218.7,281.6,216.6,280.6z M225.4,290.1c-1.3,0.8-4.4,0.5-6.7-2.6c-1.5-2.6-1.3-5.3-0.3-6.1c1.6-1,4,0.3,5.9,2.5
			C226,285.7,226.7,289.1,225.4,290.1z M222.8,278.5c-2.4-1.6-2.7-5-1-7.7c1.9-2.7,5.2-3.7,7.5-2.2c2.4,1.6,2.7,5,1,7.7
			C228.6,279.1,225.2,280.1,222.8,278.5z M232.6,295.5c-2.8,0.1-5.6-2.3-5.6-3.1c0-1.2,3.4-2.2,5.7-2.2c2.3-0.1,5.4,0.7,5.4,1.9
			C238.2,293.1,235.4,295.5,232.6,295.5z M238.3,283.4c0,2.8-2.5,5.2-5.7,5.2c-3.1,0-5.7-2.3-5.7-5.2c0,0,0,0,0-0.1
			c0-2.8,2.5-5.2,5.7-5.2C235.8,278.2,238.3,280.5,238.3,283.4z M246.2,287.6c-2.5,3.3-5.7,3.4-7,2.5c-1.3-1.2-0.3-4.9,1.5-7l0,0
			c2.1-2.3,4.2-3.7,5.7-2.5C247.4,281.6,248,285.3,246.2,287.6z M248.4,280.5c-2.1,0.9-3.7-10.1-1.2-9.5
			C251.4,273.4,250.8,278.7,248.4,280.5z"/>
		<rect id="rect1066-6" x="175.7" y="303.7" class="st8" width="113.1" height="6.4"/>
		<g transform="scale(1.0000021,0.99999791)">
			<g>
				<g>
					<text id="text1068-6" transform="matrix(1 0 0 1 220.2082 308.7722)" class="st4 st2 st22">D</text>
				</g>
			</g>
		</g>
		<g transform="scale(1.0000021,0.99999791)">
			<g>
				<g>
					<text id="text1080-5" transform="matrix(1 0 0 1 225.422 308.7722)" class="st4 st2 st22">E</text>
				</g>
			</g>
		</g>
		<g transform="scale(1.0000021,0.99999791)">
			<g>
				<g>
					<text id="text1092-1" transform="matrix(1 0 0 1 229.5959 308.7722)" class="st4 st2 st22">B</text>
				</g>
			</g>
		</g>
		<g transform="scale(1.0000021,0.99999791)">
			<g>
				<g>
					<text id="text1104-0" transform="matrix(1 0 0 1 234.3918 308.7722)" class="st4 st2 st22">U</text>
				</g>
			</g>
		</g>
		<g transform="scale(1.0000021,0.99999791)">
			<g>
				<g>
					<text id="text1116-6" transform="matrix(1 0 0 1 239.6984 308.7722)" class="st4 st2 st22">G</text>
				</g>
			</g>
		</g>
		<g transform="matrix(0,-0.99999791,1.0000021,0,0,0)">
			<g>
				<g>
					<text id="text1128-9" transform="matrix(1 0 0 1 -128.6159 201.5359)" class="st4 st2 st22">B</text>
				</g>
			</g>
		</g>
		<g transform="matrix(0,-0.99999791,1.0000021,0,0,0)">
			<g>
				<g>
					<text id="text1140-4" transform="matrix(1 0 0 1 -123.8229 201.5359)" class="st4 st2 st22">O</text>
				</g>
			</g>
		</g>
		<g transform="matrix(0,-0.99999791,1.0000021,0,0,0)">
			<g>
				<g>
					<text id="text1152-5" transform="matrix(1 0 0 1 -118.2233 201.5359)" class="st4 st2 st22">O</text>
				</g>
			</g>
		</g>
		<g transform="matrix(0,-0.99999791,1.0000021,0,0,0)">
			<g>
				<g>
					<text id="text1164-8" transform="matrix(1 0 0 1 -112.8219 201.5359)" class="st4 st2 st22">T</text>
				</g>
			</g>
		</g>
		<g transform="matrix(0,-0.99999791,1.0000021,0,0,0)">
			<g>
				<g>
					<text id="text1176-4" transform="matrix(1 0 0 1 -108.7711 201.5359)" class="st4 st2 st22">S</text>
				</g>
			</g>
		</g>
		<g transform="matrix(0,-0.99999791,1.0000021,0,0,0)">
			<g>
				<g>
					<text id="text1188-2" transform="matrix(1 0 0 1 -104.6559 201.5359)" class="st4 st2 st22">E</text>
				</g>
			</g>
		</g>
		<g transform="matrix(0,-0.99999791,1.0000021,0,0,0)">
			<g>
				<g>
					<text id="text1200-1" transform="matrix(1 0 0 1 -100.4821 201.5359)" class="st4 st2 st22">L</text>
				</g>
			</g>
		</g>
		<g transform="scale(1.0000021,0.99999791)">
			<g>
				<g>
					<text id="text1212-4" transform="matrix(1 0 0 1 194.8771 82.6297)" class="st4 st2 st22">L</text>
				</g>
			</g>
		</g>
		<g transform="scale(1.0000021,0.99999791)">
			<g>
				<g>
					<text id="text1224-1" transform="matrix(1 0 0 1 198.8078 82.6297)" class="st4 st2 st22">E</text>
				</g>
			</g>
		</g>
		<g transform="scale(1.0000021,0.99999791)">
			<g>
				<g>
					<text id="text1236-9" transform="matrix(1 0 0 1 202.9845 82.6297)" class="st4 st2 st22">D</text>
				</g>
			</g>
		</g>
		<g transform="scale(1.0000021,0.99999791)">
			<g>
				<g>
					<text id="text1248-9" transform="matrix(1 0 0 1 188.9054 59.0896)" class="st4 st2 st22">1</text>
				</g>
			</g>
		</g>
		<g transform="scale(1.0000021,0.99999791)">
			<g>
				<g>
					<text id="text1260-4" transform="matrix(1 0 0 1 188.9054 72.7693)" class="st4 st2 st22">2</text>
				</g>
			</g>
		</g>
		<g transform="scale(1.0000021,0.99999791)">
			<g>
				<g>
					<text id="text1272-6" transform="matrix(1 0 0 1 267.7033 72.7693)" class="st4 st2 st22">3</text>
				</g>
			</g>
		</g>
		<g transform="scale(1.0000021,0.99999791)">
			<g>
				<g>
					<text id="text1284-1" transform="matrix(1 0 0 1 272.0314 72.7693)" class="st4 st2 st22">9</text>
				</g>
			</g>
		</g>
		<g transform="scale(1.0000021,0.99999791)">
			<g>
				<g>
					<text id="text1296-2" transform="matrix(1 0 0 1 225.1369 82.6297)" class="st4 st2 st22">U</text>
				</g>
			</g>
		</g>
		<g transform="scale(1.0000021,0.99999791)">
			<g>
				<g>
					<text id="text1308-1" transform="matrix(1 0 0 1 230.4445 82.6297)" class="st4 st2 st22">S</text>
				</g>
			</g>
		</g>
		<g transform="scale(1.0000021,0.99999791)">
			<g>
				<g>
					<text id="text1320-1" transform="matrix(1 0 0 1 234.5597 82.6297)" class="st4 st2 st22">B</text>
				</g>
			</g>
		</g>
		<rect id="rect1332-6" x="191.5" y="130.7" class="st8" width="11.9" height="170"/>
		<g transform="matrix(0,-0.99999791,1.0000021,0,0,0)">
			<g>
				<g>
					<text id="text1334-8" transform="matrix(1 0 0 1 -300.6485 199.6668)" class="st4 st2 st23">R</text>
				</g>
			</g>
		</g>
		<g transform="matrix(0,-0.99999791,1.0000021,0,0,0)">
			<g>
				<g>
					<text id="text1346-1" transform="matrix(1 0 0 1 -293.6201 199.6668)" class="st4 st2 st23">a</text>
				</g>
			</g>
		</g>
		<g transform="matrix(0,-0.99999791,1.0000021,0,0,0)">
			<g>
				<g>
					<text id="text1358-5" transform="matrix(1 0 0 1 -287.1533 199.6668)" class="st4 st2 st23">s</text>
				</g>
			</g>
		</g>
		<g transform="matrix(0,-0.99999791,1.0000021,0,0,0)">
			<g>
				<g>
					<text id="text1370-0" transform="matrix(1 0 0 1 -281.4443 199.6668)" class="st4 st2 st23">p</text>
				</g>
			</g>
		</g>
		<g transform="matrix(0,-0.99999791,1.0000021,0,0,0)">
			<g>
				<g>
					<text id="text1382-3" transform="matrix(1 0 0 1 -274.455 199.6668)" class="st4 st2 st23">b</text>
				</g>
			</g>
		</g>
		<g transform="matrix(0,-0.99999791,1.0000021,0,0,0)">
			<g>
				<g>
					<text id="text1394-3" transform="matrix(1 0 0 1 -267.4638 199.6668)" class="st4 st2 st23">e</text>
				</g>
			</g>
		</g>
		<g transform="matrix(0,-0.99999791,1.0000021,0,0,0)">
			<g>
				<g>
					<text id="text1406-7" transform="matrix(1 0 0 1 -260.957 199.6668)" class="st4 st2 st23">r</text>
				</g>
			</g>
		</g>
		<g transform="matrix(0,-0.99999791,1.0000021,0,0,0)">
			<g>
				<g>
					<text id="text1418-0" transform="matrix(1 0 0 1 -255.7441 199.6668)" class="st4 st2 st23">r</text>
				</g>
			</g>
		</g>
		<g transform="matrix(0,-0.99999791,1.0000021,0,0,0)">
			<g>
				<g>
					<text id="text1430-0" transform="matrix(1 0 0 1 -250.5302 199.6668)" class="st4 st2 st23">y</text>
				</g>
			</g>
		</g>
		<g transform="matrix(0,-0.99999791,1.0000021,0,0,0)">
			<g>
				<g>
					<text id="text1454-7" transform="matrix(1 0 0 1 -240.5722 199.6668)" class="st4 st2 st23">P</text>
				</g>
			</g>
		</g>
		<g transform="matrix(0,-0.99999791,1.0000021,0,0,0)">
			<g>
				<g>
					<text id="text1466-5" transform="matrix(1 0 0 1 -233.6747 199.6668)" class="st4 st2 st23">i</text>
				</g>
			</g>
		</g>
		<g transform="matrix(0,-0.99999791,1.0000021,0,0,0)">
			<g>
				<g>
					<text id="text1490-6" transform="matrix(1 0 0 1 -225.9003 199.6668)" class="st4 st2 st23">P</text>
				</g>
			</g>
		</g>
		<g transform="matrix(0,-0.99999791,1.0000021,0,0,0)">
			<g>
				<g>
					<text id="text1502-0" transform="matrix(1 0 0 1 -219.0028 199.6668)" class="st4 st2 st23">i</text>
				</g>
			</g>
		</g>
		<g transform="matrix(0,-0.99999791,1.0000021,0,0,0)">
			<g>
				<g>
					<text id="text1514-3" transform="matrix(1 0 0 1 -215.121 199.6668)" class="st4 st2 st23">c</text>
				</g>
			</g>
		</g>
		<g transform="matrix(0,-0.99999791,1.0000021,0,0,0)">
			<g>
				<g>
					<text id="text1526-4" transform="matrix(1 0 0 1 -209.2997 199.6668)" class="st4 st2 st23">o</text>
				</g>
			</g>
		</g>
		<g transform="matrix(0,-0.99999791,1.0000021,0,0,0)">
			<g>
				<g>
					<text id="text1550-5" transform="matrix(1 0 0 1 -198.5008 199.6668)" class="st4 st2 st23">©</text>
				</g>
			</g>
		</g>
		<g transform="matrix(0,-0.99999791,1.0000021,0,0,0)">
			<g>
				<g>
					<text id="text1562-2" transform="matrix(1 0 0 1 -189.1746 199.6668)" class="st4 st2 st23">2</text>
				</g>
			</g>
		</g>
		<g transform="matrix(0,-0.99999791,1.0000021,0,0,0)">
			<g>
				<g>
					<text id="text1574-3" transform="matrix(1 0 0 1 -182.5184 199.6668)" class="st4 st2 st23">0</text>
				</g>
			</g>
		</g>
		<g transform="matrix(0,-0.99999791,1.0000021,0,0,0)">
			<g>
				<g>
					<text id="text1586-0" transform="matrix(1 0 0 1 -175.8621 199.6668)" class="st4 st2 st23">2</text>
				</g>
			</g>
		</g>
		<g transform="matrix(0,-0.99999791,1.0000021,0,0,0)">
			<g>
				<g>
					<text id="text1598-5" transform="matrix(1 0 0 1 -169.2058 199.6668)" class="st4 st2 st23">0</text>
				</g>
			</g>
		</g>
		<g transform="scale(1.0000021,0.99999791)">
			<g>
				<g>
					<text id="text1610-9" transform="matrix(1 0 0 1 216.4162 198.2947)" class="st24 st2 st25">R</text>
				</g>
			</g>
		</g>
		<g transform="scale(1.0000021,0.99999791)">
			<g>
				<g>
					<text id="text1622-1" transform="matrix(1 0 0 1 219.0529 198.2947)" class="st24 st2 st25">P</text>
				</g>
			</g>
		</g>
		<g transform="scale(1.0000021,0.99999791)">
			<g>
				<g>
					<text id="text1634-5" transform="matrix(1 0 0 1 221.7873 198.2947)" class="st24 st2 st25">2</text>
				</g>
			</g>
		</g>
		<g transform="scale(1.0000021,0.99999791)">
			<g>
				<g>
					<text id="text1646-5" transform="matrix(1 0 0 1 224.2668 198.2947)" class="st24 st2 st25">-</text>
				</g>
			</g>
		</g>
		<g transform="scale(1.0000021,0.99999791)">
			<g>
				<g>
					<text id="text1658-1" transform="matrix(1 0 0 1 225.7199 198.2947)" class="st24 st2 st25">8</text>
				</g>
			</g>
		</g>
		<g transform="scale(1.0000021,0.99999791)">
			<g>
				<g>
					<text id="text1670-6" transform="matrix(1 0 0 1 228.2023 198.2947)" class="st24 st2 st25">0</text>
				</g>
			</g>
		</g>
		<g transform="scale(1.0000021,0.99999791)">
			<g>
				<g>
					<text id="text1730-4" transform="matrix(1 0 0 1 236.1828 198.2947)" class="st24 st2 st25">2</text>
				</g>
			</g>
		</g>
		<g transform="scale(1.0000021,0.99999791)">
			<g>
				<g>
					<text id="text1742-8" transform="matrix(1 0 0 1 238.6652 198.2947)" class="st24 st2 st25">0</text>
				</g>
			</g>
		</g>
		<g transform="scale(1.0000021,0.99999791)">
			<g>
				<g>
					<text id="text1754-6" transform="matrix(1 0 0 1 241.1476 198.2947)" class="st24 st2 st25">/</text>
				</g>
			</g>
		</g>
		<g transform="scale(1.0000021,0.99999791)">
			<g>
				<g>
					<text id="text1766-9" transform="matrix(1 0 0 1 243.1125 198.2947)" class="st24 st2 st25">2</text>
				</g>
			</g>
		</g>
		<g transform="scale(1.0000021,0.99999791)">
			<g>
				<g>
					<text id="text1778-4" transform="matrix(1 0 0 1 245.592 198.2947)" class="st24 st2 st25">1</text>
				</g>
			</g>
		</g>
		<g transform="scale(1.0000021,0.99999791)">
			<g>
				<g>
					<text id="text1790-8" transform="matrix(1 0 0 1 216.3605 203.0437)" class="st24 st2 st25">P</text>
				</g>
			</g>
		</g>
		<g transform="scale(1.0000021,0.99999791)">
			<g>
				<g>
					<text id="text1802-5" transform="matrix(1 0 0 1 219.0949 203.0437)" class="st24 st2 st25">6</text>
				</g>
			</g>
		</g>
		<g transform="scale(1.0000021,0.99999791)">
			<g>
				<g>
					<text id="text1814-0" transform="matrix(1 0 0 1 221.5763 203.0437)" class="st24 st2 st25">4</text>
				</g>
			</g>
		</g>
		<g transform="scale(1.0000021,0.99999791)">
			<g>
				<g>
					<text id="text1826-9" transform="matrix(1 0 0 1 224.0588 203.0437)" class="st24 st2 st25">M</text>
				</g>
			</g>
		</g>
		<g transform="scale(1.0000021,0.99999791)">
			<g>
				<g>
					<text id="text1838-9" transform="matrix(1 0 0 1 227.6301 203.0437)" class="st24 st2 st25">1</text>
				</g>
			</g>
		</g>
		<g transform="scale(1.0000021,0.99999791)">
			<g>
				<g>
					<text id="text1850-4" transform="matrix(1 0 0 1 230.1125 203.0437)" class="st24 st2 st25">5</text>
				</g>
			</g>
		</g>
		<g transform="scale(1.0000021,0.99999791)">
			<g>
				<g>
					<text id="text1862-1" transform="matrix(1 0 0 1 232.592 203.0437)" class="st24 st2 st25">.</text>
				</g>
			</g>
		</g>
		<g transform="scale(1.0000021,0.99999791)">
			<g>
				<g>
					<text id="text1874-4" transform="matrix(1 0 0 1 234.1095 203.0437)" class="st24 st2 st25">0</text>
				</g>
			</g>
		</g>
		<g transform="scale(1.0000021,0.99999791)">
			<g>
				<g>
					<text id="text1886-4" transform="matrix(1 0 0 1 236.589 203.0437)" class="st24 st2 st25">0</text>
				</g>
			</g>
		</g>
		<g transform="scale(1.0000021,0.99999791)">
			<g>
				<g>
					<text id="text1910-3" transform="matrix(1 0 0 1 240.3654 203.0437)" class="st24 st2 st25">T</text>
				</g>
			</g>
		</g>
		<g transform="scale(1.0000021,0.99999791)">
			<g>
				<g>
					<text id="text1922-3" transform="matrix(1 0 0 1 242.9914 203.0437)" class="st24 st2 st25">T</text>
				</g>
			</g>
		</g>
		<g transform="scale(1.0000021,0.99999791)">
			<g>
				<g>
					<text id="text1934-3" transform="matrix(1 0 0 1 245.6174 203.0437)" class="st24 st2 st25">T</text>
				</g>
			</g>
		</g>
		<path id="path1947-3" class="st24" d="M238.9,182.7l-0.2-0.2c0-1.8-0.8-2.5-1.8-3.1c0.3-0.1,0.6-0.2,0.7-0.5
			c0.5-0.1,0.6-0.4,0.7-0.6c0.1-0.1,0.6-0.4,0.5-0.8c0.2-0.2,0.4-0.4,0.3-0.7c0.3-0.3,0.4-0.5,0.2-0.8c0.3-0.4,0.2-0.6,0-0.8
			c0.2-0.4,0-0.9-0.6-0.8c-0.3-0.4-0.8-0.3-1-0.3c-0.1-0.1-0.2-0.2-0.6-0.2c-0.3-0.2-0.6-0.2-0.9-0.1c-0.4-0.3-0.6,0-0.9,0
			c-0.4-0.2-0.6,0-0.8,0.1c-0.5-0.1-0.6,0.1-0.9,0.4h-0.3c-0.7,0.4-1.1,1.3-1.2,1.7c-0.1-0.4-0.5-1.3-1.2-1.7h-0.3
			c-0.2-0.2-0.4-0.4-0.9-0.4c-0.2-0.1-0.3-0.3-0.8-0.1c-0.2,0-0.4-0.2-0.6-0.2l0,0c-0.1,0-0.2,0-0.4,0.1c-0.3-0.1-0.6-0.2-0.9,0.1
			c-0.4,0-0.6,0-0.6,0.2c-0.1,0-0.7-0.1-1,0.3c-0.7-0.1-0.9,0.4-0.6,0.8c-0.1,0.2-0.3,0.4,0,0.8c-0.1,0.2,0,0.5,0.2,0.8
			c-0.1,0.3,0.1,0.5,0.3,0.7c0,0.4,0.4,0.7,0.5,0.8c0,0.2,0.2,0.5,0.7,0.6c0.1,0.4,0.4,0.4,0.7,0.5c-1,0.6-1.8,1.3-1.8,3.1l-0.2,0.2
			c-1.1,0.7-2.1,2.8-0.6,4.6c0.1,0.6,0.3,1,0.4,1.4c0.2,1.7,1.7,2.6,2.1,2.7c0.6,0.4,1.2,0.8,2,1.2c0.8,0.8,1.6,1.1,2.5,1.1h0
			c0.9,0,1.7-0.3,2.5-1.1c0.8-0.3,1.5-0.7,2-1.2c0.4-0.1,1.9-0.9,2.1-2.7c0.2-0.4,0.3-0.8,0.4-1.4
			C241,185.6,240.1,183.4,238.9,182.7z M238.1,182.4c0,0.7-3.9-2.5-3.2-2.7C236.6,179.5,238.1,180.5,238.1,182.4z M236.4,186
			c-1,0.6-2.3,0.2-3.1-0.9c-0.8-1.1-0.6-2.5,0.4-3.1c1-0.6,2.3-0.2,3.1,0.9C237.5,184.1,237.3,185.4,236.4,186z M233.7,174.8
			c0,0.2,0.1,0.3,0.1,0.3c0.2-0.2,0.4-0.5,0.6-0.7c0,0.1-0.1,0.3,0.1,0.4c0.2-0.2,0.4-0.4,0.6-0.5c-0.1,0.2,0,0.3,0,0.4
			c0.2-0.2,0.4-0.4,0.8-0.5c-0.1,0.1-0.2,0.2-0.1,0.4c0.2-0.1,0.4-0.2,0.9-0.4c-0.1,0.1-0.4,0.2-0.2,0.4c0.3-0.1,0.6-0.2,0.9-0.2
			c-0.2,0.1-0.3,0.2-0.2,0.4c0.3-0.1,0.7-0.2,1-0.1l-0.2,0.2c0,0,0.6,0,0.9,0c-0.1,0.2-0.3,0.4-0.4,0.7c0,0,0.2,0,0.4,0
			c-0.2,0.4-0.5,0.5-0.6,0.6c0.1,0.1,0.3,0.1,0.4,0c-0.1,0.3-0.4,0.4-0.6,0.7c0,0,0.2,0.1,0.4,0c-0.2,0.2-0.4,0.4-0.7,0.6
			c0,0,0.2,0,0.4,0.1c-0.3,0.2-0.6,0.4-0.9,0.6c0.2,0.1,0.3,0.1,0.4,0.1c-0.2,0.2-0.6,0.3-1,0.4c0.1,0.1,0.1,0.1,0.3,0.2
			c-0.4,0.2-0.9,0.1-1.1,0.2c0,0.1,0.1,0.2,0.3,0.2c-0.6,0-2.2,0-2.5-1.3c0.6-0.7,1.7-1.5,3.7-2.4c-1.5,0.5-2.9,1.2-4,2.1
			C232.2,177,233.1,175.4,233.7,174.8L233.7,174.8z M232.4,179.3L232.4,179.3c1,0,2.1,0.7,2.1,1.3c0,0.6-0.8,1.1-2.1,1
			c-1.3,0-2.1-0.6-2.1-1.2C230.3,180,231.3,179.3,232.4,179.3z M227.6,178.8c0.2,0,0.2,0,0.3-0.2c-0.4-0.1-0.7-0.2-1-0.4
			c0.1,0,0.2,0,0.4-0.1c-0.3-0.2-0.6-0.3-0.9-0.6c0.2,0,0.4,0,0.4-0.1c-0.3-0.2-0.5-0.4-0.7-0.6c0.2,0,0.3,0,0.4,0
			c-0.2-0.2-0.5-0.4-0.6-0.7c0.2,0,0.3,0.1,0.4,0c-0.1-0.2-0.4-0.3-0.6-0.6c0.2,0,0.4,0,0.4,0c-0.1-0.3-0.2-0.5-0.4-0.7
			c0.4,0,1,0,0.9,0l-0.2-0.2c0.4-0.1,0.8,0,1,0.1c0.1-0.1,0-0.2-0.2-0.4c0.3,0,0.6,0.1,0.9,0.2c0.1-0.1-0.1-0.2-0.2-0.4
			c0.5,0.1,0.7,0.2,0.9,0.4c0.2-0.2,0-0.3-0.1-0.4c0.4,0.1,0.6,0.3,0.8,0.5c0.1-0.1,0.2-0.2,0-0.4c0.3,0.2,0.5,0.3,0.6,0.5
			c0.2-0.1,0.1-0.2,0.1-0.4c0.3,0.2,0.4,0.4,0.6,0.7c0,0,0.1-0.1,0.1-0.3c0.6,0.6,1.5,2.2,0.2,2.8c-1.1-0.9-2.5-1.6-4-2.1
			c1.9,1,3.1,1.7,3.7,2.4c-0.3,1.2-1.9,1.3-2.5,1.3c0.1,0,0.2-0.1,0.3-0.2C228.5,178.9,228,179,227.6,178.8z M229.9,179.7
			c0.7,0.1-3.1,3.4-3.2,2.7C226.7,180.5,228.2,179.4,229.9,179.7z M225.9,187c-0.9-0.7-1.2-2.9,0.5-3.9
			C227.4,182.9,226.8,187.4,225.9,187z M229.5,190.8c-0.5,0.3-1.8,0.2-2.7-1.1c-0.6-1.1-0.5-2.1-0.1-2.5c0.6-0.4,1.6,0.1,2.4,1
			C229.7,189.1,230,190.4,229.5,190.8z M228.4,186.2c-1-0.6-1.1-2-0.4-3.1c0.8-1.1,2.1-1.5,3.1-0.9c1,0.6,1.1,2,0.4,3.1
			C230.8,186.4,229.4,186.8,228.4,186.2z M232.4,193c-1.2,0-2.3-0.9-2.3-1.3c0-0.5,1.4-0.9,2.3-0.9c0.9,0,2.2,0.3,2.2,0.8
			C234.7,192.1,233.5,193,232.4,193z M234.7,188.1c0,1.2-1,2.1-2.3,2.1s-2.3-0.9-2.3-2.1c0,0,0,0,0,0c0-1.2,1-2.1,2.3-2.1
			C233.7,186,234.7,187,234.7,188.1z M237.9,189.8c-1,1.3-2.3,1.4-2.8,1c-0.5-0.5-0.1-2,0.6-2.8l0,0c0.8-0.9,1.7-1.5,2.3-1
			C238.4,187.4,238.6,188.9,237.9,189.8z M238.8,187c-0.8,0.4-1.5-4.1-0.5-3.9C240,184.1,239.7,186.2,238.8,187z"/>
		<path id="path227-0" class="st20" d="M188.1,70.5c0-2.1-1.7-3.8-3.8-3.8h-8.7v1.5l0,0c1.3,0,2.3,1,2.3,2.3c0,1.3-1,2.3-2.3,2.3
			l0,0v1.5h8.7C186.4,74.2,188.1,72.6,188.1,70.5z M184.4,72.8c-1.3,0-2.3-1-2.3-2.3s1-2.3,2.3-2.3c1.3,0,2.3,1,2.3,2.3
			S185.6,72.8,184.4,72.8z"/>
		<path id="path41-8" class="st20" d="M188.1,80.4h-12.4v1.5l0,0c1.3,0,2.3,1,2.3,2.3c0,1.3-1,2.3-2.3,2.3l0,0v1.5h12.4V80.4z
			 M184.4,86.4c-1.3,0-2.3-1-2.3-2.3c0-1.3,1-2.3,2.3-2.3c1.3,0,2.3,1,2.3,2.3C186.7,85.4,185.6,86.4,184.4,86.4z"/>
		<path id="path230-8" class="st20" d="M188.1,97.8c0-2.1-1.7-3.8-3.8-3.8h-8.7v1.5l0,0c1.3,0,2.3,1,2.3,2.3c0,1.3-1,2.3-2.3,2.3
			l0,0v1.5h8.7C186.4,101.6,188.1,99.9,188.1,97.8z M184.4,100.1c-1.3,0-2.3-1-2.3-2.3c0-1.3,1-2.3,2.3-2.3c1.3,0,2.3,1,2.3,2.3
			C186.7,99.1,185.6,100.1,184.4,100.1z"/>
		<path id="path39-9" class="st20" d="M188.1,111.5c0-2.1-1.7-3.8-3.8-3.8h-8.7v1.5l0,0c1.3,0,2.3,1,2.3,2.3s-1,2.3-2.3,2.3l0,0v1.5
			h8.7C186.4,115.3,188.1,113.6,188.1,111.5z M184.4,113.8c-1.3,0-2.3-1-2.3-2.3s1-2.3,2.3-2.3c1.3,0,2.3,1,2.3,2.3
			S185.6,113.8,184.4,113.8z"/>
		<path id="path233-3" class="st20" d="M188.1,125.2c0-2.1-1.7-3.8-3.8-3.8h-8.7v1.5l0,0c1.3,0,2.3,1,2.3,2.3s-1,2.3-2.3,2.3l0,0
			v1.5h8.7C186.4,129,188.1,127.3,188.1,125.2z M184.4,127.5c-1.3,0-2.3-1-2.3-2.3s1-2.3,2.3-2.3c1.3,0,2.3,1,2.3,2.3
			S185.6,127.5,184.4,127.5z"/>
		<path id="path37-5" class="st20" d="M188.1,138.9c0-2.1-1.7-3.8-3.8-3.8h-8.7v1.5l0,0c1.3,0,2.3,1,2.3,2.3s-1,2.3-2.3,2.3l0,0v1.5
			h8.7C186.4,142.6,188.1,140.9,188.1,138.9z M184.4,141.1c-1.3,0-2.3-1-2.3-2.3c0-1.3,1-2.3,2.3-2.3c1.3,0,2.3,1,2.3,2.3
			C186.7,140.1,185.6,141.1,184.4,141.1z"/>
		<path id="path236-5" class="st20" d="M188.1,148.8h-12.4v1.5l0,0c1.3,0,2.3,1,2.3,2.3s-1,2.3-2.3,2.3l0,0v1.5h12.4V148.8z
			 M184.4,154.8c-1.3,0-2.3-1-2.3-2.3c0-1.3,1-2.3,2.3-2.3c1.3,0,2.3,1,2.3,2.3C186.7,153.8,185.6,154.8,184.4,154.8z"/>
		<path id="path35-3" class="st20" d="M188.1,166.2c0-2.1-1.7-3.8-3.8-3.8h-8.7v1.5l0,0c1.3,0,2.3,1,2.3,2.3s-1,2.3-2.3,2.3l0,0v1.5
			h8.7C186.4,170,188.1,168.3,188.1,166.2z M184.4,168.5c-1.3,0-2.3-1-2.3-2.3s1-2.3,2.3-2.3c1.3,0,2.3,1,2.3,2.3
			C186.7,167.5,185.6,168.5,184.4,168.5z"/>
		<path id="path239-5" class="st20" d="M188.1,179.9c0-2.1-1.7-3.8-3.8-3.8h-8.7v1.5l0,0c1.3,0,2.3,1,2.3,2.3c0,1.3-1,2.3-2.3,2.3
			l0,0v1.5h8.7C186.4,183.7,188.1,182,188.1,179.9z M184.4,182.2c-1.3,0-2.3-1-2.3-2.3c0-1.3,1-2.3,2.3-2.3c1.3,0,2.3,1,2.3,2.3
			C186.7,181.2,185.6,182.2,184.4,182.2z"/>
		<path id="path33-9" class="st20" d="M188.1,193.6c0-2.1-1.7-3.8-3.8-3.8h-8.7v1.5l0,0c1.3,0,2.3,1,2.3,2.3c0,1.3-1,2.3-2.3,2.3
			l0,0v1.5h8.7C186.4,197.3,188.1,195.7,188.1,193.6z M184.4,195.9c-1.3,0-2.3-1-2.3-2.3s1-2.3,2.3-2.3c1.3,0,2.3,1,2.3,2.3
			S185.6,195.9,184.4,195.9z"/>
		<path id="path242-9" class="st20" d="M188.1,207.3c0-2.1-1.7-3.8-3.8-3.8h-8.7v1.5l0,0c1.3,0,2.3,1,2.3,2.3c0,1.3-1,2.3-2.3,2.3
			l0,0v1.5h8.7C186.4,211,188.1,209.3,188.1,207.3z M184.4,209.5c-1.3,0-2.3-1-2.3-2.3c0-1.3,1-2.3,2.3-2.3c1.3,0,2.3,1,2.3,2.3
			C186.7,208.5,185.6,209.5,184.4,209.5z"/>
		<path id="path31-0" class="st20" d="M188.1,217.2h-12.4v1.5l0,0c1.3,0,2.3,1,2.3,2.3c0,1.3-1,2.3-2.3,2.3l0,0v1.5h12.4V217.2z
			 M184.4,223.2c-1.3,0-2.3-1-2.3-2.3s1-2.3,2.3-2.3c1.3,0,2.3,1,2.3,2.3S185.6,223.2,184.4,223.2z"/>
		<path id="path245-1" class="st20" d="M188.1,234.6c0-2.1-1.7-3.8-3.8-3.8h-8.7v1.5l0,0c1.3,0,2.3,1,2.3,2.3c0,1.3-1,2.3-2.3,2.3
			l0,0v1.5h8.7C186.4,238.4,188.1,236.7,188.1,234.6z M184.4,236.9c-1.3,0-2.3-1-2.3-2.3s1-2.3,2.3-2.3c1.3,0,2.3,1,2.3,2.3
			S185.6,236.9,184.4,236.9z"/>
		<path id="path29-9" class="st20" d="M188.1,248.3c0-2.1-1.7-3.8-3.8-3.8h-8.7v1.5l0,0c1.3,0,2.3,1,2.3,2.3s-1,2.3-2.3,2.3l0,0v1.5
			h8.7C186.4,252,188.1,250.4,188.1,248.3z M184.4,250.6c-1.3,0-2.3-1-2.3-2.3c0-1.3,1-2.3,2.3-2.3c1.3,0,2.3,1,2.3,2.3
			C186.7,249.5,185.6,250.6,184.4,250.6z"/>
		<path id="path248-5" class="st20" d="M188.1,262c0-2.1-1.7-3.8-3.8-3.8h-8.7v1.5l0,0c1.3,0,2.3,1,2.3,2.3c0,1.3-1,2.3-2.3,2.3l0,0
			v1.5h8.7C186.4,265.7,188.1,264,188.1,262z M184.4,264.2c-1.3,0-2.3-1-2.3-2.3s1-2.3,2.3-2.3c1.3,0,2.3,1,2.3,2.3
			S185.6,264.2,184.4,264.2z"/>
		<path id="path27-3" class="st20" d="M188.1,275.6c0-2.1-1.7-3.8-3.8-3.8h-8.7v1.5l0,0c1.3,0,2.3,1,2.3,2.3c0,1.3-1,2.3-2.3,2.3
			l0,0v1.5h8.7C186.4,279.4,188.1,277.7,188.1,275.6z M184.4,277.9c-1.3,0-2.3-1-2.3-2.3s1-2.3,2.3-2.3c1.3,0,2.3,1,2.3,2.3
			S185.6,277.9,184.4,277.9z"/>
		<path id="path251-1" class="st20" d="M188.1,285.6h-12.4v1.5l0,0c1.3,0,2.3,1,2.3,2.3s-1,2.3-2.3,2.3l0,0v1.5h12.4V285.6z
			 M184.4,291.6c-1.3,0-2.3-1-2.3-2.3s1-2.3,2.3-2.3c1.3,0,2.3,1,2.3,2.3S185.6,291.6,184.4,291.6z"/>
		<path id="path25-3" class="st20" d="M188.1,303c0-2.1-1.7-3.8-3.8-3.8h-8.7v1.5l0,0c1.3,0,2.3,1,2.3,2.3c0,1.3-1,2.3-2.3,2.3l0,0
			v1.5h8.7C186.4,306.8,188.1,305.1,188.1,303z M184.4,305.3c-1.3,0-2.3-1-2.3-2.3s1-2.3,2.3-2.3c1.3,0,2.3,1,2.3,2.3
			S185.6,305.3,184.4,305.3z"/>
		<path id="path254-4" class="st20" d="M188.1,316.7c0-2.1-1.7-3.8-3.8-3.8h-8.7v1.5l0,0c1.3,0,2.3,1,2.3,2.3c0,1.3-1,2.3-2.3,2.3
			l0,0v1.5h8.7C186.4,320.4,188.1,318.7,188.1,316.7z M184.4,318.9c-1.3,0-2.3-1-2.3-2.3s1-2.3,2.3-2.3c1.3,0,2.3,1,2.3,2.3
			S185.6,318.9,184.4,318.9z"/>
		<path id="path2-8" class="st20" d="M280.1,74.2h8.7v-1.5l0,0c-1.3,0-2.3-1-2.3-2.3c0-1.3,1-2.3,2.3-2.3l0,0v-1.5h-8.7
			c-2.1,0-3.8,1.7-3.8,3.8S278,74.2,280.1,74.2z M277.8,70.5c0-1.3,1-2.3,2.3-2.3s2.3,1,2.3,2.3s-1,2.3-2.3,2.3
			S277.8,71.7,277.8,70.5z"/>
		<path id="path3-1" class="st20" d="M276.4,87.9h12.4v-1.5l0,0c-1.3,0-2.3-1-2.3-2.3s1-2.3,2.3-2.3l0,0v-1.5h-12.4V87.9z
			 M277.8,84.2c0-1.3,1-2.3,2.3-2.3s2.3,1,2.3,2.3s-1,2.3-2.3,2.3S277.8,85.4,277.8,84.2z"/>
		<path id="path258-0" class="st20" d="M280.1,101.6h8.7v-1.5l0,0c-1.3,0-2.3-1-2.3-2.3c0-1.3,1-2.3,2.3-2.3l0,0v-1.5h-8.7
			c-2.1,0-3.8,1.7-3.8,3.8S278,101.6,280.1,101.6z M277.8,97.8c0-1.3,1-2.3,2.3-2.3s2.3,1,2.3,2.3c0,1.3-1,2.3-2.3,2.3
			S277.8,99.1,277.8,97.8z"/>
		<path id="path5-8" class="st20" d="M280.1,115.3h8.7v-1.5l0,0c-1.3,0-2.3-1-2.3-2.3s1-2.3,2.3-2.3l0,0v-1.5h-8.7
			c-2.1,0-3.8,1.7-3.8,3.8S278,115.3,280.1,115.3z M277.8,111.5c0-1.3,1-2.3,2.3-2.3s2.3,1,2.3,2.3s-1,2.3-2.3,2.3
			S277.8,112.8,277.8,111.5z"/>
		<path id="path261-7" class="st20" d="M280.1,129h8.7v-1.5l0,0c-1.3,0-2.3-1-2.3-2.3s1-2.3,2.3-2.3l0,0v-1.5h-8.7
			c-2.1,0-3.8,1.7-3.8,3.8S278,129,280.1,129z M277.8,125.2c0-1.3,1-2.3,2.3-2.3s2.3,1,2.3,2.3s-1,2.3-2.3,2.3
			S277.8,126.5,277.8,125.2z"/>
		<path id="path7-0" class="st20" d="M280.1,142.6h8.7v-1.5l0,0c-1.3,0-2.3-1-2.3-2.3s1-2.3,2.3-2.3l0,0v-1.5h-8.7
			c-2.1,0-3.8,1.7-3.8,3.8C276.4,140.9,278,142.6,280.1,142.6z M277.8,138.9c0-1.3,1-2.3,2.3-2.3s2.3,1,2.3,2.3c0,1.3-1,2.3-2.3,2.3
			S277.8,140.1,277.8,138.9z"/>
		<path id="path264-9" class="st20" d="M276.4,156.3h12.4v-1.5l0,0c-1.3,0-2.3-1-2.3-2.3s1-2.3,2.3-2.3l0,0v-1.5h-12.4V156.3z
			 M277.8,152.6c0-1.3,1-2.3,2.3-2.3s2.3,1,2.3,2.3s-1,2.3-2.3,2.3S277.8,153.8,277.8,152.6z"/>
		<path id="path9-3" class="st20" d="M280.1,170h8.7v-1.5l0,0c-1.3,0-2.3-1-2.3-2.3s1-2.3,2.3-2.3l0,0v-1.5h-8.7
			c-2.1,0-3.8,1.7-3.8,3.8C276.4,168.3,278,170,280.1,170z M277.8,166.2c0-1.3,1-2.3,2.3-2.3s2.3,1,2.3,2.3c0,1.3-1,2.3-2.3,2.3
			S277.8,167.5,277.8,166.2z"/>
		<path id="path10-1" class="st20" d="M280.1,183.7h8.7v-1.5l0,0c-1.3,0-2.3-1-2.3-2.3c0-1.3,1-2.3,2.3-2.3l0,0v-1.5h-8.7
			c-2.1,0-3.8,1.7-3.8,3.8C276.4,182,278,183.7,280.1,183.7z M277.8,179.9c0-1.3,1-2.3,2.3-2.3s2.3,1,2.3,2.3c0,1.3-1,2.3-2.3,2.3
			S277.8,181.2,277.8,179.9z"/>
		<path id="path11-9" class="st20" d="M280.1,197.3h8.7v-1.5l0,0c-1.3,0-2.3-1-2.3-2.3c0-1.3,1-2.3,2.3-2.3l0,0v-1.5h-8.7
			c-2.1,0-3.8,1.7-3.8,3.8C276.4,195.7,278,197.3,280.1,197.3L280.1,197.3z M277.8,193.6c0-1.3,1-2.3,2.3-2.3s2.3,1,2.3,2.3
			s-1,2.3-2.3,2.3S277.8,194.8,277.8,193.6z"/>
		<path id="path269-5" class="st20" d="M280.1,211h8.7v-1.5l0,0c-1.3,0-2.3-1-2.3-2.3c0-1.3,1-2.3,2.3-2.3l0,0v-1.5h-8.7
			c-2.1,0-3.8,1.7-3.8,3.8C276.4,209.3,278,211,280.1,211z M277.8,207.3c0-1.3,1-2.3,2.3-2.3s2.3,1,2.3,2.3c0,1.3-1,2.3-2.3,2.3
			S277.8,208.5,277.8,207.3z"/>
		<path id="path13-1" class="st20" d="M276.4,224.7h12.4v-1.5l0,0c-1.3,0-2.3-1-2.3-2.3c0-1.3,1-2.3,2.3-2.3l0,0v-1.5h-12.4V224.7z
			 M277.8,220.9c0-1.3,1-2.3,2.3-2.3s2.3,1,2.3,2.3s-1,2.3-2.3,2.3S277.8,222.2,277.8,220.9z"/>
		<path id="path272-2" class="st20" d="M280.1,238.4h8.7v-1.5l0,0c-1.3,0-2.3-1-2.3-2.3c0-1.3,1-2.3,2.3-2.3l0,0v-1.5h-8.7
			c-2.1,0-3.8,1.7-3.8,3.8C276.4,236.7,278,238.4,280.1,238.4z M277.8,234.6c0-1.3,1-2.3,2.3-2.3s2.3,1,2.3,2.3s-1,2.3-2.3,2.3
			S277.8,235.9,277.8,234.6z"/>
		<path id="path15-9" class="st20" d="M280.1,252h8.7v-1.5l0,0c-1.3,0-2.3-1-2.3-2.3s1-2.3,2.3-2.3l0,0v-1.5h-8.7
			c-2.1,0-3.8,1.7-3.8,3.8C276.4,250.4,278,252,280.1,252z M277.8,248.3c0-1.3,1-2.3,2.3-2.3s2.3,1,2.3,2.3c0,1.3-1,2.3-2.3,2.3
			S277.8,249.5,277.8,248.3z"/>
		<path id="path275-7" class="st20" d="M280.1,265.7h8.7v-1.5l0,0c-1.3,0-2.3-1-2.3-2.3c0-1.3,1-2.3,2.3-2.3l0,0v-1.5h-8.7
			c-2.1,0-3.8,1.7-3.8,3.8C276.4,264,278,265.7,280.1,265.7z M277.8,262c0-1.3,1-2.3,2.3-2.3s2.3,1,2.3,2.3c0,1.3-1,2.3-2.3,2.3
			S277.8,263.2,277.8,262z"/>
		<path id="path17-9" class="st20" d="M280.1,279.4h8.7v-1.5l0,0c-1.3,0-2.3-1-2.3-2.3c0-1.3,1-2.3,2.3-2.3l0,0v-1.5h-8.7
			c-2.1,0-3.8,1.7-3.8,3.8S278,279.4,280.1,279.4z M277.8,275.6c0-1.3,1-2.3,2.3-2.3s2.3,1,2.3,2.3c0,1.3-1,2.3-2.3,2.3
			S277.8,276.9,277.8,275.6z"/>
		<path id="path278-7" class="st20" d="M276.4,293.1h12.4v-1.5l0,0c-1.3,0-2.3-1-2.3-2.3c0-1.3,1-2.3,2.3-2.3l0,0v-1.5h-12.4V293.1z
			 M277.8,289.3c0-1.3,1-2.3,2.3-2.3s2.3,1,2.3,2.3s-1,2.3-2.3,2.3S277.8,290.6,277.8,289.3z"/>
		<path id="path19-9" class="st20" d="M280.1,306.7h8.7v-1.5l0,0c-1.3,0-2.3-1-2.3-2.3c0-1.3,1-2.3,2.3-2.3l0,0v-1.5h-8.7
			c-2.1,0-3.8,1.7-3.8,3.8C276.4,305.1,278,306.7,280.1,306.7z M277.8,303c0-1.3,1-2.3,2.3-2.3s2.3,1,2.3,2.3s-1,2.3-2.3,2.3
			S277.8,304.3,277.8,303z"/>
		<path id="path281-0" class="st20" d="M280.1,320.4h8.7V319l0,0c-1.3,0-2.3-1-2.3-2.3c0-1.3,1-2.3,2.3-2.3l0,0v-1.5h-8.7
			c-2.1,0-3.8,1.7-3.8,3.8S278,320.4,280.1,320.4z M277.8,316.7c0-1.3,1-2.3,2.3-2.3s2.3,1,2.3,2.3s-1,2.3-2.3,2.3
			S277.8,317.9,277.8,316.7z"/>
		<path id="path23-3" class="st20" d="M218.6,312.9c-2.1,0-3.8,1.7-3.8,3.8v7.4h1.5l0,0c0-1.3,1-2.3,2.3-2.3s2.3,1,2.3,2.3l0,0h1.5
			v-7.4C222.3,314.6,220.6,312.9,218.6,312.9z M220.8,316.7c0,1.3-1,2.3-2.3,2.3c-1.3,0-2.3-1-2.3-2.3s1-2.3,2.3-2.3
			C219.8,314.4,220.8,315.4,220.8,316.7z"/>
		<path id="path284-7" class="st20" d="M228.5,313v11h1.5l0,0c0-1.3,1-2.3,2.3-2.3s2.3,1,2.3,2.3l0,0h1.5v-11H228.5z M234.5,316.7
			c0,1.3-1,2.3-2.3,2.3s-2.3-1-2.3-2.3s1-2.3,2.3-2.3C233.5,314.4,234.5,315.4,234.5,316.7z"/>
		<path id="path21-6" class="st20" d="M245.9,312.9c-2.1,0-3.8,1.7-3.8,3.8v7.4h1.5l0,0c0-1.3,1-2.3,2.3-2.3c1.3,0,2.3,1,2.3,2.3
			l0,0h1.5v-7.4C249.7,314.6,248,312.9,245.9,312.9z M248.2,316.7c0,1.3-1,2.3-2.3,2.3c-1.3,0-2.3-1-2.3-2.3s1-2.3,2.3-2.3
			S248.2,315.4,248.2,316.7z"/>
		<path id="path1-6" class="st20" d="M280.1,60.6h8.7v-1.5l0,0c-1.3,0-2.3-1-2.3-2.3s1-2.3,2.3-2.3l0,0v-1.5h-8.7
			c-2.1,0-3.8,1.7-3.8,3.8S278,60.6,280.1,60.6z M277.8,56.8c0-1.3,1-2.3,2.3-2.3s2.3,1,2.3,2.3s-1,2.3-2.3,2.3
			S277.8,58.1,277.8,56.8z"/>
		<path id="path43-3" class="st20" d="M188.1,56.8c0-2.1-1.7-3.8-3.8-3.8h-8.7v1.5l0,0c1.3,0,2.3,1,2.3,2.3c0,1.3-1,2.3-2.3,2.3l0,0
			v1.5h8.7C186.4,60.6,188.1,58.9,188.1,56.8z M184.4,59.1c-1.3,0-2.3-1-2.3-2.3c0-1.3,1-2.3,2.3-2.3c1.3,0,2.3,1,2.3,2.3
			C186.7,58.1,185.6,59.1,184.4,59.1z"/>
		<circle id="connector0pin" class="st8" cx="184.4" cy="56.8" r="2.2"/>
		<circle id="connector1pin" class="st8" cx="184.4" cy="70.5" r="2.2"/>
		<circle id="connector2pin" class="st8" cx="184.4" cy="84.2" r="2.2"/>
		<circle id="connector3pin" class="st8" cx="184.4" cy="97.9" r="2.2"/>
		<circle id="connector4pin" class="st8" cx="184.4" cy="111.5" r="2.2"/>
		<circle id="connector5pin" class="st8" cx="184.4" cy="125.2" r="2.2"/>
		<circle id="connector6pin" class="st8" cx="184.4" cy="138.9" r="2.2"/>
		<circle id="connector7pin" class="st8" cx="184.4" cy="152.6" r="2.2"/>
		<circle id="connector8pin" class="st8" cx="184.3" cy="166.2" r="2.2"/>
		<circle id="connector9pin" class="st8" cx="184.3" cy="179.9" r="2.2"/>
		<circle id="connector10pin" class="st8" cx="184.3" cy="193.6" r="2.2"/>
		<circle id="connector11pin" class="st8" cx="184.3" cy="207.3" r="2.2"/>
		<circle id="connector12pin" class="st8" cx="184.3" cy="220.9" r="2.2"/>
		<circle id="connector13pin" class="st8" cx="184.3" cy="234.6" r="2.2"/>
		<circle id="connector14pin" class="st8" cx="184.3" cy="248.3" r="2.2"/>
		<circle id="connector15pin" class="st8" cx="184.3" cy="262" r="2.2"/>
		<circle id="connector16pin" class="st8" cx="184.3" cy="275.7" r="2.2"/>
		<circle id="connector17pin" class="st8" cx="184.3" cy="289.3" r="2.2"/>
		<circle id="connector18pin" class="st8" cx="184.3" cy="303" r="2.2"/>
		<circle id="connector19pin" class="st8" cx="184.3" cy="316.7" r="2.2"/>
		<circle id="connector20pin" class="st8" cx="280.1" cy="316.7" r="2.2"/>
		<circle id="connector21pin" class="st8" cx="280.1" cy="303" r="2.2"/>
		<circle id="connector22pin" class="st8" cx="280.1" cy="289.3" r="2.2"/>
		<circle id="connector23pin" class="st8" cx="280.1" cy="275.7" r="2.2"/>
		<circle id="connector24pin" class="st8" cx="280.1" cy="262" r="2.2"/>
		<circle id="connector25pin" class="st8" cx="280.1" cy="248.3" r="2.2"/>
		<circle id="connector26pin" class="st8" cx="280.1" cy="234.6" r="2.2"/>
		<circle id="connector27pin" class="st8" cx="280.1" cy="220.9" r="2.2"/>
		<circle id="connector28pin" class="st8" cx="280.1" cy="207.3" r="2.2"/>
		<circle id="connector29pin" class="st8" cx="280.1" cy="193.6" r="2.2"/>
		<circle id="connector30pin" class="st8" cx="280.1" cy="179.9" r="2.2"/>
		<circle id="connector31pin" class="st8" cx="280.1" cy="166.2" r="2.2"/>
		<circle id="connector32pin" class="st8" cx="280.1" cy="152.6" r="2.2"/>
		<circle id="connector33pin" class="st8" cx="280.1" cy="138.9" r="2.2"/>
		<circle id="connector34pin" class="st8" cx="280.1" cy="125.2" r="2.2"/>
		<circle id="connector35pin" class="st8" cx="280.1" cy="111.5" r="2.2"/>
		<circle id="connector36pin" class="st8" cx="280.1" cy="97.9" r="2.2"/>
		<circle id="connector37pin" class="st8" cx="280.1" cy="84.2" r="2.2"/>
		<circle id="connector38pin" class="st8" cx="280.1" cy="70.5" r="2.2"/>
		<circle id="connector39pin" class="st8" cx="280.1" cy="56.8" r="2.2"/>
		<circle id="connector40pin-6" class="st8" cx="218.5" cy="316.7" r="2.2"/>
		<circle id="connector41pin-2" class="st8" cx="232.2" cy="316.7" r="2.2"/>
		<circle id="connector42pin-4" class="st8" cx="245.9" cy="316.7" r="2.2"/>
		<g transform="rotate(90)">
			<g>
				<g>
					
						<ellipse id="connector123pin" transform="matrix(0.1602 -0.9871 0.9871 0.1602 481.6411 128.989)" class="st8" cx="316.6" cy="-218.6" rx="2.2" ry="2.2"/>
				</g>
			</g>
		</g>
		<g transform="rotate(90)">
			<g>
				<g>
					
						<ellipse id="connector122pin" transform="matrix(0.1602 -0.9871 0.9871 0.1602 495.1414 117.503)" class="st8" cx="316.6" cy="-232.2" rx="2.2" ry="2.2"/>
				</g>
			</g>
		</g>
		<g transform="rotate(90)">
			<g>
				<g>
					
						<ellipse id="connector121pin" transform="matrix(0.1602 -0.9871 0.9871 0.1602 508.6417 106.0169)" class="st8" cx="316.6" cy="-245.9" rx="2.2" ry="2.2"/>
				</g>
			</g>
		</g>
	</g>
</g>
<line class="st26" x1="129.6" y1="84.4" x2="141.2" y2="84.4"/>
<line class="st26" x1="129.6" y1="152.8" x2="141.2" y2="152.8"/>
<line class="st26" x1="129.6" y1="221.2" x2="141.2" y2="221.2"/>
<line class="st26" x1="129.6" y1="289.6" x2="141.2" y2="289.6"/>
<line class="st26" x1="323.8" y1="82.5" x2="335.4" y2="82.5"/>
<line class="st27" x1="323.8" y1="55.7" x2="335.4" y2="55.7"/>
<line class="st27" x1="329.6" y1="49.9" x2="329.6" y2="61.5"/>
<line class="st27" x1="323.8" y1="69.8" x2="335.4" y2="69.8"/>
<line class="st27" x1="329.6" y1="64" x2="329.6" y2="75.6"/>
<line class="st27" x1="323.8" y1="111.5" x2="335.4" y2="111.5"/>
<line class="st27" x1="329.6" y1="105.7" x2="329.6" y2="117.3"/>
<line class="st26" x1="323.8" y1="150.9" x2="335.4" y2="150.9"/>
<line class="st26" x1="323.8" y1="219.3" x2="335.4" y2="219.3"/>
<line class="st26" x1="323.8" y1="287.7" x2="335.4" y2="287.7"/>
<rect x="226.8" y="12.2" class="st28" width="9.1" height="12.3"/>
<polygon class="st28" points="231.4,37.7 240.2,22.5 222.6,22.5 "/>
<text transform="matrix(1 0 0 1 163.9943 24.6137)" class="st28 st29 st30">POWER</text>
</svg>
